<?xml version="1.0" standalone="no"?>
<!DOCTYPE svg PUBLIC "-//W3C//DTD SVG 20010904//EN"
 "http://www.w3.org/TR/2001/REC-SVG-20010904/DTD/svg10.dtd">
<svg version="1.0" xmlns="http://www.w3.org/2000/svg"
 width="225.000000pt" height="225.000000pt" viewBox="0 0 225.000000 225.000000"
 preserveAspectRatio="xMidYMid meet">

<g transform="translate(0.000000,225.000000) scale(0.100000,-0.100000)"
fill="#000000" stroke="none">
<path d="M0 1125 l0 -1125 1125 0 1125 0 0 1125 0 1125 -1125 0 -1125 0 0
-1125z m1047 830 c40 -57 52 -70 58 -63 4 3 -1 17 -10 31 -15 24 -15 26 7 41
34 24 65 20 85 -11 9 -16 18 -30 20 -32 1 -2 16 8 33 23 17 14 40 26 49 26 18
0 200 -127 271 -189 l35 -30 -48 -1 -47 0 45 -43 c68 -65 58 -95 -20 -63 -23
10 -40 27 -52 53 -16 33 -24 39 -60 44 -29 3 -54 16 -83 43 -31 28 -48 36 -64
32 -11 -3 -38 -6 -58 -6 -30 0 -38 -4 -38 -19 0 -14 10 -20 42 -24 70 -9 108
-72 78 -127 -6 -11 -31 -31 -55 -46 -50 -29 -52 -34 -28 -75 17 -28 17 -31 -2
-65 l-19 -36 27 -48 c35 -62 34 -87 -4 -140 l-31 -43 20 -41 c11 -23 24 -58
27 -78 4 -21 12 -38 19 -38 27 0 116 51 149 85 104 107 111 287 15 427 -23 33
-23 31 13 73 38 43 50 44 43 5 -6 -28 -5 -30 24 -30 23 0 32 -6 42 -29 6 -16
9 -43 5 -59 -5 -25 -3 -30 18 -36 35 -8 45 -71 16 -102 -17 -19 -18 -22 -4
-34 8 -7 15 -25 15 -41 0 -28 -5 -35 -45 -64 -20 -15 -20 -15 -1 -30 20 -15
20 -16 -1 -53 -20 -34 -29 -42 -73 -62 -8 -4 -17 -16 -19 -26 -5 -31 -31 -52
-71 -59 -24 -4 -41 -14 -47 -27 -12 -28 -78 -51 -94 -32 -16 20 -32 17 -47 -6
-17 -28 -78 -27 -110 3 -22 21 -24 21 -36 5 -17 -23 -23 -22 -79 2 -34 15 -45
25 -40 36 4 12 1 15 -13 12 -25 -6 -63 13 -94 47 -19 20 -22 28 -11 34 15 10
7 31 -12 31 -17 1 -50 30 -71 63 -16 24 -17 27 -2 33 26 10 20 44 -8 44 -20 0
-24 6 -30 43 -6 36 -4 44 13 56 27 18 27 41 0 41 -17 0 -20 4 -15 23 3 12 6
30 6 39 0 10 14 25 31 34 30 15 31 16 11 30 l-20 14 21 40 c18 32 28 40 51 40
25 0 27 3 22 25 -9 35 4 31 48 -14 l39 -40 -31 -36 c-50 -56 -65 -94 -70 -175
-5 -93 22 -173 79 -235 36 -39 108 -85 157 -100 20 -6 22 -3 22 27 0 19 12 58
26 87 l26 52 -21 23 c-48 51 -48 128 -1 171 24 22 26 48 5 65 -20 17 -19 51 3
90 17 31 17 32 -8 48 -14 9 -37 29 -52 44 -57 55 -20 138 62 138 35 0 40 3 40
23 0 21 -4 22 -75 22 -72 0 -75 -1 -102 -33 -24 -27 -36 -33 -81 -36 -57 -4
-93 -26 -85 -55 3 -13 -7 -23 -39 -39 -24 -11 -52 -24 -63 -27 -19 -6 -19 -7
-1 -20 17 -13 17 -15 -7 -39 -36 -35 -57 -34 -57 4 0 23 15 45 70 102 l71 73
-38 5 -38 5 110 82 c107 80 208 142 232 143 7 0 20 -11 30 -25z m603 -386 c0
-41 -18 -45 -52 -12 l-29 30 23 26 23 27 18 -21 c9 -12 17 -34 17 -50z m-1044
-49 c32 0 32 -33 -1 -66 -31 -31 -45 -24 -45 21 0 38 12 75 18 57 2 -7 15 -12
28 -12z m1092 -35 c5 -57 -13 -67 -49 -27 -36 40 -37 60 -1 65 42 6 47 3 50
-38z m18 -151 c-4 -18 -13 -37 -21 -44 -12 -10 -18 -5 -35 31 -11 24 -20 56
-20 71 0 25 3 27 29 22 18 -4 32 -1 37 7 12 18 18 -42 10 -87z m-1103 49 c-3
-33 -32 -103 -44 -103 -16 0 -29 39 -29 88 l0 49 38 -3 c34 -2 37 -4 35 -31z
m-3 -206 c-6 -22 -9 -41 -6 -44 9 -10 26 8 26 29 0 20 1 21 20 3 38 -34 54
-142 22 -153 -21 -7 -80 61 -88 103 -4 21 -17 54 -30 73 -21 31 -33 92 -19 92
3 0 16 -7 29 -15 21 -14 24 -14 37 12 l14 28 3 -45 c2 -25 -2 -62 -8 -83z
m1086 88 c44 33 45 10 3 -93 -47 -119 -57 -137 -88 -155 -16 -9 -32 -17 -35
-17 -3 0 -6 25 -6 56 0 40 6 67 21 90 22 35 39 37 39 3 0 -10 6 -19 14 -19 12
0 12 8 -1 57 -8 31 -11 68 -8 82 l7 26 18 -22 c15 -20 20 -20 36 -8z m-901
-266 c38 -34 83 -68 99 -75 l31 -13 -35 -2 c-119 -7 -170 3 -215 43 -44 38
-44 48 0 41 37 -6 39 -3 35 45 -1 12 2 22 7 22 5 0 40 -28 78 -61z m750 20 c0
-20 6 -25 33 -27 38 -4 40 -11 10 -39 -51 -46 -88 -57 -196 -56 -57 1 -106 4
-109 7 -4 3 5 6 18 6 39 1 100 33 164 88 33 29 64 50 70 49 5 -2 10 -14 10
-28z m-57 -144 c9 -8 -30 -34 -71 -47 -33 -10 -49 -9 -110 10 -40 11 -81 24
-92 28 -18 7 -18 5 4 -22 l23 -29 -22 -3 c-12 -2 -32 6 -44 17 -28 26 -48 27
-71 1 -10 -11 -29 -20 -43 -20 -24 0 -24 1 -8 25 20 31 13 32 -71 10 -97 -25
-163 -16 -218 30 -19 15 3 16 349 11 203 -3 371 -8 374 -11z m-858 -385 l0
-160 -31 0 -31 0 3 153 c1 83 4 155 6 160 2 4 15 7 29 7 l24 0 0 -160z m180
85 l0 -76 78 3 77 3 3 73 c3 69 4 72 27 72 24 0 25 -2 25 -75 l0 -75 129 0
c104 0 133 3 145 16 15 14 16 12 15 -23 0 -21 -3 -32 -6 -25 -3 8 -27 12 -69
12 l-64 0 0 -46 c0 -73 11 -84 81 -84 56 0 61 2 77 30 9 16 21 30 25 30 8 0 0
-55 -10 -72 -2 -5 -53 -8 -114 -8 l-109 0 0 75 0 75 -50 0 -50 0 0 -75 c0 -73
-1 -75 -25 -75 -24 0 -25 2 -25 75 l0 75 -80 0 -80 0 0 -75 c0 -73 -1 -75 -25
-75 l-25 0 0 134 c0 141 -4 166 -25 166 -8 0 -17 5 -20 10 -4 6 13 10 44 10
l51 0 0 -75z m532 39 c2 -19 0 -37 -4 -40 -4 -3 -8 2 -8 10 0 27 -42 46 -102
46 l-58 0 0 -45 c0 -41 -2 -45 -25 -45 -23 0 -25 4 -25 45 0 38 -3 45 -19 45
-11 0 -23 5 -26 10 -4 6 41 10 128 10 l135 0 4 -36z m323 22 c18 -8 36 -12 39
-8 3 3 6 1 6 -4 1 -5 3 -27 5 -49 5 -35 4 -38 -7 -20 -37 57 -65 75 -118 75
-62 0 -93 -25 -110 -91 -24 -90 9 -170 79 -189 52 -14 96 -3 132 32 16 16 29
24 29 18 0 -22 -61 -69 -96 -76 -111 -21 -202 41 -211 143 -12 131 124 222
252 169z m-1025 -404 c0 -5 -10 -8 -22 -8 -18 1 -24 -5 -26 -26 -3 -25 0 -28
25 -28 19 0 24 -3 14 -9 -35 -23 -72 19 -51 59 10 19 60 29 60 12z m140 -29
c8 -21 16 -41 18 -44 1 -3 -5 -6 -13 -6 -9 0 -14 6 -11 14 3 8 -2 13 -13 13
-10 0 -22 -7 -25 -16 -4 -9 -9 -15 -12 -12 -6 7 26 88 35 88 4 0 13 -17 21
-37z m158 15 c2 -10 -1 -18 -7 -18 -6 0 -11 7 -11 15 0 8 -4 15 -10 15 -18 0
-10 -22 16 -42 14 -11 23 -23 20 -26 -3 -3 -15 3 -26 13 -19 18 -20 17 -20 -3
0 -12 -4 -22 -10 -22 -5 0 -10 21 -10 46 0 44 1 45 27 42 17 -2 29 -10 31 -20z
m152 12 c0 -5 -7 -7 -16 -3 -13 5 -15 -1 -12 -33 1 -21 -2 -39 -7 -39 -5 0 -8
18 -7 39 3 32 1 38 -12 33 -9 -4 -16 -2 -16 3 0 6 16 10 35 10 19 0 35 -4 35
-10z m106 -6 c0 -9 7 -18 17 -20 14 -2 18 2 14 17 -4 13 0 19 12 19 13 0 15
-8 13 -45 -4 -44 -22 -65 -22 -25 0 13 -7 20 -20 20 -13 0 -20 -6 -18 -14 2
-8 -1 -15 -6 -15 -5 -1 -9 17 -10 39 -1 24 4 40 10 40 7 0 11 -7 10 -16z m198
-24 c19 -47 19 -50 6 -50 -5 0 -10 7 -10 15 0 8 -9 15 -20 15 -11 0 -20 -7
-20 -16 0 -8 -4 -13 -9 -9 -10 5 19 85 30 85 4 0 14 -18 23 -40z m166 23 c0
-14 -2 -15 -9 -5 -12 19 -45 11 -49 -11 -2 -10 5 -28 15 -39 18 -21 18 -21 -4
-9 -32 17 -37 29 -19 56 20 30 66 35 66 8z m146 6 c4 -8 0 -9 -15 -4 -16 5
-21 2 -21 -10 0 -11 5 -15 15 -11 8 3 15 1 15 -4 0 -6 -7 -10 -15 -10 -8 0
-15 -5 -15 -11 0 -7 9 -9 21 -6 13 3 19 1 16 -6 -2 -7 -15 -12 -28 -12 -21 0
-24 5 -27 43 -3 39 -1 42 22 42 14 0 28 -5 32 -11z m-146 -55 c0 -8 -4 -14 -9
-14 -11 0 -22 26 -14 34 9 9 23 -3 23 -20z"/>
<path d="M1030 1708 c0 -6 10 -26 21 -45 29 -46 64 -43 65 5 1 35 -1 37 -53
46 -21 3 -33 1 -33 -6z"/>
<path d="M1166 1695 c-20 -72 9 -93 60 -44 48 46 45 64 -10 64 -37 0 -46 -4
-50 -20z"/>
<path d="M1092 1338 c-17 -17 -15 -63 3 -78 8 -7 15 -11 16 -9 4 32 3 99 -1
99 -3 0 -11 -5 -18 -12z"/>
<path d="M1161 1295 l0 -60 19 24 c11 13 20 29 20 36 0 7 -9 23 -20 36 l-19
24 0 -60z"/>
<path d="M1081 1099 c-18 -51 -14 -89 8 -89 23 0 31 19 31 76 0 53 -22 60 -39
13z"/>
<path d="M1150 1070 c0 -53 2 -60 20 -60 23 0 26 24 9 83 -15 55 -29 45 -29
-23z"/>
<path d="M750 200 c0 -5 5 -10 11 -10 5 0 7 5 4 10 -3 6 -8 10 -11 10 -2 0 -4
-4 -4 -10z"/>
<path d="M1360 200 c0 -5 5 -10 10 -10 6 0 10 5 10 10 0 6 -4 10 -10 10 -5 0
-10 -4 -10 -10z"/>
</g>
</svg>
