<?xml version="1.0" encoding="UTF-8"?>
<svg version="1.1" xmlns="http://www.w3.org/2000/svg" width="225" height="225">
<path d="M0 0 C74.25 0 148.5 0 225 0 C225 74.25 225 148.5 225 225 C150.75 225 76.5 225 0 225 C0 150.75 0 76.5 0 0 Z " fill="#141F56" transform="translate(0,0)"/>
<path d="M0 0 C2.49880808 2.01826806 3.583298 4.166596 5 7 C5.66 7.33 6.32 7.66 7 8 C6.01 6.68 5.02 5.36 4 4 C4.5625 2.0625 4.5625 2.0625 6 0 C9.4375 -0.9375 9.4375 -0.9375 13 -1 C14.9375 0.25 14.9375 0.25 16 2 C16 2.99 16 3.98 16 5 C16.43570313 4.62746094 16.87140625 4.25492188 17.3203125 3.87109375 C17.91585937 3.39800781 18.51140625 2.92492187 19.125 2.4375 C19.70507812 1.96183594 20.28515625 1.48617188 20.8828125 0.99609375 C24.11778645 -0.52589584 25.57687518 -0.09444131 29 1 C32.31170551 3.01600073 35.3632597 5.32954086 38.4375 7.6875 C39.25798828 8.30044922 40.07847656 8.91339844 40.92382812 9.54492188 C45.77190333 13.19355309 50.48404357 16.94597182 55 21 C55 21.33 55 21.66 55 22 C51.04 22.495 51.04 22.495 47 23 C47.74056641 23.56267578 47.74056641 23.56267578 48.49609375 24.13671875 C53.7941681 28.36878216 53.7941681 28.36878216 54.9375 31.875 C54.958125 32.57625 54.97875 33.2775 55 34 C49.74587663 33.58791189 46.71663943 32.82282913 43 29 C42.7525 28.13375 42.505 27.2675 42.25 26.375 C41.8375 25.59125 41.425 24.8075 41 24 C38.75409021 23.32216002 36.52566917 22.97370887 34.2109375 22.59765625 C32 22 32 22 29.8125 19.4375 C25.08669887 15.34180569 19.05148972 16.0900763 13 16 C13 17.32 13 18.64 13 20 C14.5778125 19.87625 14.5778125 19.87625 16.1875 19.75 C20.56887825 20.03730349 21.94845581 20.94845581 25 24 C26.44430855 26.88861709 26.37688506 28.79647701 26 32 C23.12096841 35.53709595 19.99100148 37.83345634 16 40 C16.144375 40.721875 16.28875 41.44375 16.4375 42.1875 C16.623125 43.115625 16.80875 44.04375 17 45 C17.3403125 46.299375 17.3403125 46.299375 17.6875 47.625 C18 50 18 50 16 53 C16.22295689 56.41867227 16.73988069 58.5838091 18.5625 61.5 C20.41180201 64.71617741 20.58664272 66.33348302 20 70 C18.83984375 71.76171875 18.83984375 71.76171875 17.4375 73.5625 C15.3252391 76.19377275 15.3252391 76.19377275 15 79.5 C15.80768726 81.51921816 16.67595542 83.51414014 17.5625 85.5 C18.89091078 88.73439147 19.3108251 90.58092386 19 94 C27.81691057 90.95968601 34.75018932 86.9410015 40 79 C44.68245287 67.67308056 43.35024515 58.18217377 39 47 C37.84407742 45.04900403 37.84407742 45.04900403 36.625 43.5 C35 41 35 41 35.5 38.375 C37.10323355 35.83654688 38.70536823 33.93609556 41 32 C41.66 32 42.32 32 43 32 C42.67 33.98 42.34 35.96 42 38 C43.98 38 45.96 38 48 38 C50.83022097 41.99560608 49.76210446 45.42737323 49 50 C50.65 50.33 52.3 50.66 54 51 C54.495 55.455 54.495 55.455 55 60 C53.68 60.33 52.36 60.66 51 61 C51.495 61.53625 51.99 62.0725 52.5 62.625 C54.42109443 65.66673285 54.45185216 67.46049143 54 71 C52.45493534 73.03667615 51.27853844 73.86073078 49 75 C49 75.66 49 76.32 49 77 C49.66 77.33 50.32 77.66 51 78 C50.30058404 81.14737182 49.23921302 84.02588876 48 87 C44.535 87.495 44.535 87.495 41 88 C40.71125 89.11375 40.4225 90.2275 40.125 91.375 C39 95 39 95 37 97 C34.34462628 97.56520003 31.70855287 97.73788198 29 98 C28.7215625 99.175625 28.7215625 99.175625 28.4375 100.375 C27 103 27 103 23.375 104.3125 C22.26125 104.539375 21.1475 104.76625 20 105 C19.01 104.01 19.01 104.01 18 103 C17.01 103 16.02 103 15 103 C14.505 104.485 14.505 104.485 14 106 C12.56344146 106.08131463 11.1255517 106.13933559 9.6875 106.1875 C8.48673828 106.23970703 8.48673828 106.23970703 7.26171875 106.29296875 C4.49291259 105.9343151 3.81639042 105.02945675 2 103 C1.34 103 0.68 103 0 103 C-0.33 103.66 -0.66 104.32 -1 105 C-5.56454251 104.45660208 -8.9728176 103.20536179 -13 101 C-12.505 99.515 -12.505 99.515 -12 98 C-12.845625 98.12375 -13.69125 98.2475 -14.5625 98.375 C-19.26828345 97.86164181 -21.92032852 95.51702128 -25 92 C-25 91.34 -25 90.68 -25 90 C-24.34 90 -23.68 90 -23 90 C-23.88020087 87.78940459 -23.88020087 87.78940459 -26.3125 86.625 C-29.04151731 84.97489651 -30.98189007 83.4665788 -33 81 C-33 79.68 -33 78.36 -33 77 C-32.34 77 -31.68 77 -31 77 C-31 75.68 -31 74.36 -31 73 C-32.65 73 -34.3 73 -36 73 C-36.33 70.03 -36.66 67.06 -37 64 C-36.01 63.34 -35.02 62.68 -34 62 C-33.67 61.01 -33.34 60.02 -33 59 C-34.32 59 -35.64 59 -37 59 C-36.25 51.25 -36.25 51.25 -34 49 C-33.01 49 -32.02 49 -31 49 C-31.66 48.01 -32.32 47.02 -33 46 C-32.65262237 42.61306808 -31.64599285 39.96278714 -30 37 C-28.02 37 -26.04 37 -24 37 C-24.495 34.525 -24.495 34.525 -25 32 C-21.18315774 33.55500981 -18.80804268 36.03595495 -16 39 C-17.84232112 42.90714478 -20.21308575 46.33095318 -22.66015625 49.87890625 C-26.41980984 55.83077767 -25.87629154 64.19300604 -25 71 C-22.54506663 79.0623273 -18.12281534 85.45300753 -11 90 C-7.40405902 91.8620989 -3.76042597 93.49997714 0 95 C-0.0825 93.824375 -0.165 92.64875 -0.25 91.4375 C-0.27990703 88.05800604 0.26131257 86.10342751 2.0625 83.25 C4.20477666 80.31707434 4.20477666 80.31707434 3.9375 77.8125 C3.04484827 75.91701686 3.04484827 75.91701686 1.5 74.25 C-0.6456071 71.03158935 -1.27201684 67.80823578 -1 64 C0.875 60.75 0.875 60.75 3 58 C3.96044102 55.92309422 3.96044102 55.92309422 4 54 C3.34 53.01 2.68 52.02 2 51 C1.66042437 46.92509248 1.68667514 45.46998729 4 42 C4 41.01 4 40.02 4 39 C2.52791333 37.64333383 2.52791333 37.64333383 0.625 36.5 C-2.11457786 34.74125866 -3.11523332 33.82715002 -5 31 C-5.47609586 27.34993173 -5.21601636 25.43203273 -3.5625 22.125 C-0.20826135 19.34343624 1.94753381 19.58574788 6.171875 19.82421875 C6.77515625 19.88222656 7.3784375 19.94023438 8 20 C8 18.35 8 16.7 8 15 C7.01 15.495 7.01 15.495 6 16 C3.8949034 15.91671514 1.79073825 15.80897809 -0.3125 15.6875 C-3.81455244 15.56560248 -3.81455244 15.56560248 -7 16 C-9.7193624 18.87983662 -9.7193624 18.87983662 -12 22 C-14.60899828 22.59816058 -17.02226859 22.74812648 -19.6953125 22.796875 C-22.2777632 22.83886401 -22.2777632 22.83886401 -25 25 C-25.0825 25.78375 -25.165 26.5675 -25.25 27.375 C-26 30 -26 30 -29.3125 32.1875 C-30.53348227 32.80804037 -31.76227461 33.41356679 -33 34 C-33.804375 34.4125 -34.60875 34.825 -35.4375 35.25 C-35.953125 35.4975 -36.46875 35.745 -37 36 C-36.34 36.66 -35.68 37.32 -35 38 C-37.3125 40.5 -37.3125 40.5 -40 43 C-40.99 43 -41.98 43 -43 43 C-43.4375 39.875 -43.4375 39.875 -43 36 C-41.4724265 34.23775578 -39.8180669 32.95709726 -37.95703125 31.5546875 C-34.86093734 29.09511589 -32.47533513 26.06470063 -30 23 C-31.98 22.67 -33.96 22.34 -36 22 C-36 21.34 -36 20.68 -36 20 C-34.55859375 18.87890625 -34.55859375 18.87890625 -32.4375 17.5625 C-27.29731093 14.26854972 -22.43304811 10.66038133 -17.58178711 6.95922852 C-5.56065728 -2.03383642 -5.56065728 -2.03383642 0 0 Z " fill="#E8EDF5" transform="translate(104,28)"/>
<path d="M0 0 C0 1.65 0 3.3 0 5 C-0.61488281 5.02578125 -1.22976562 5.0515625 -1.86328125 5.078125 C-6.84460837 5.32796068 -6.84460837 5.32796068 -11.0625 7.6875 C-12.31903468 10.7869522 -12.54193621 12.68064069 -12 16 C-9.34774458 19.16797175 -6.37146475 21.62748777 -3 24 C-3.875 28.875 -3.875 28.875 -5 30 C-5.26293056 34.03160191 -5.29404844 35.55892734 -3 39 C-3.20929008 42.03470617 -4.23630653 43.30580845 -6.125 45.75 C-8.26184602 49.45386643 -8.362188 51.03964148 -7.6328125 55.11328125 C-6.70413203 57.88212488 -4.85100894 59.77878927 -3 62 C-3.08827271 64.73645414 -4.18268836 66.33492866 -5.5 68.75 C-7.2997972 72.64956059 -7.63278319 75.740285 -8 80 C-16.39248864 78.70080692 -23.31347025 73.67519588 -28.52734375 67.10546875 C-34.48098739 58.59349548 -35.18939822 50.13529933 -34 40 C-32.24110847 34.45914408 -29.56077346 29.71618578 -25 26 C-26.5830577 21.7257442 -29.50568404 19.73468206 -33 17 C-32.67 18.65 -32.34 20.3 -32 22 C-33.98 22 -35.96 22 -38 22 C-38.66 23.98 -39.32 25.96 -40 28 C-42.375 28.625 -42.375 28.625 -45 29 C-45.66 28.34 -46.32 27.68 -47 27 C-46.01 25.68 -45.02 24.36 -44 23 C-44.66 22.01 -45.32 21.02 -46 20 C-44.37750059 19.16180842 -42.75191503 18.3295884 -41.125 17.5 C-40.22007813 17.0359375 -39.31515625 16.571875 -38.3828125 16.09375 C-36 15 -36 15 -34 15 C-34.12375 13.8553125 -34.12375 13.8553125 -34.25 12.6875 C-34 10 -34 10 -32.29296875 8.3515625 C-29.64471509 6.79058164 -28.10631589 6.70157003 -25.0625 6.6875 C-22.39869766 6.58646566 -22.39869766 6.58646566 -20 6 C-18.89387393 4.4514235 -17.78863796 2.90046964 -16.7578125 1.30078125 C-12.55076396 -1.81243467 -5.03876451 -0.3422557 0 0 Z " fill="#151E55" transform="translate(112,43)"/>
<path d="M0 0 C12.39925633 -0.92865443 12.39925633 -0.92865443 16.2421875 1.30078125 C17.35108882 2.37135648 18.43130845 3.47266805 19.4765625 4.60546875 C21.94980022 6.86943251 24.77121037 6.7467616 28 7 C30 9 30 9 30.875 11.375 C32.12907507 14.30117515 33.65266093 15.88739484 36 18 C34.68 18 33.36 18 32 18 C32 19.32 32 20.64 32 22 C31.01 22 30.02 22 29 22 C29.33 20.02 29.66 18.04 30 16 C25.92635584 19.01086389 25.92635584 19.01086389 22.875 22.9375 C23.03564496 25.58814178 24.27987212 26.87931967 25.80859375 28.97265625 C31.03764434 37.87061446 32.08075475 47.47725752 30.0625 57.375 C27.81575405 65.06743018 22.20069623 70.82249043 15.875 75.5625 C12.55479899 77.2226005 9.68353358 77.70531731 6 78 C5.80664062 77.24074219 5.61328125 76.48148437 5.4140625 75.69921875 C5.15367188 74.70535156 4.89328125 73.71148437 4.625 72.6875 C4.36976562 71.70136719 4.11453125 70.71523437 3.8515625 69.69921875 C3.08086826 66.8194184 3.08086826 66.8194184 1 64 C1.2074452 60.99204464 2.27886824 59.61127457 4.0625 57.125 C6.27970444 53.5488638 6.67254173 52.11931811 6 48 C5.35218768 46.79039193 4.66156375 45.60306604 3.9375 44.4375 C2 41 2 41 2.1875 38.4375 C2.455625 37.633125 2.72375 36.82875 3 36 C3.73343428 32.93443402 3.73343428 32.93443402 4 30 C3.34 29.01 2.68 28.02 2 27 C2.125 24.9765625 2.125 24.9765625 3 23 C4.8125 21.5859375 4.8125 21.5859375 7 20.375 C10.09166609 18.76772106 10.09166609 18.76772106 12 16 C12.53252058 12.00609564 12.35389756 10.48258758 9.9375 7.1875 C6.52655584 4.6474352 4.19769372 4.24692316 0 4 C0 2.68 0 1.36 0 0 Z " fill="#151F55" transform="translate(117,44)"/>
<path d="M0 0 C2.49880808 2.01826806 3.583298 4.166596 5 7 C5.66 7.33 6.32 7.66 7 8 C6.01 6.68 5.02 5.36 4 4 C4.5625 2.0625 4.5625 2.0625 6 0 C9.4375 -0.9375 9.4375 -0.9375 13 -1 C14.9375 0.25 14.9375 0.25 16 2 C16 2.99 16 3.98 16 5 C16.43570313 4.62746094 16.87140625 4.25492188 17.3203125 3.87109375 C17.91585937 3.39800781 18.51140625 2.92492187 19.125 2.4375 C19.70507812 1.96183594 20.28515625 1.48617188 20.8828125 0.99609375 C24.11778645 -0.52589584 25.57687518 -0.09444131 29 1 C32.31170551 3.01600073 35.3632597 5.32954086 38.4375 7.6875 C39.25798828 8.30044922 40.07847656 8.91339844 40.92382812 9.54492188 C45.77190333 13.19355309 50.48404357 16.94597182 55 21 C55 21.33 55 21.66 55 22 C51.04 22.495 51.04 22.495 47 23 C47.74056641 23.56267578 47.74056641 23.56267578 48.49609375 24.13671875 C53.7941681 28.36878216 53.7941681 28.36878216 54.9375 31.875 C54.958125 32.57625 54.97875 33.2775 55 34 C49.74587663 33.58791189 46.71663943 32.82282913 43 29 C42.7525 28.13375 42.505 27.2675 42.25 26.375 C41.8375 25.59125 41.425 24.8075 41 24 C38.75409021 23.32216002 36.52566917 22.97370887 34.2109375 22.59765625 C32 22 32 22 29.8125 19.4375 C25.08669887 15.34180569 19.05148972 16.0900763 13 16 C13 17.32 13 18.64 13 20 C15.31 20 17.62 20 20 20 C20 20.33 20 20.66 20 21 C17.03 21.33 14.06 21.66 11 22 C11.33 20.02 11.66 18.04 12 16 C11.34 16 10.68 16 10 16 C10 16.99 10 17.98 10 19 C9.34 19 8.68 19 8 19 C8 17.68 8 16.36 8 15 C7.01 15.495 7.01 15.495 6 16 C3.8949034 15.91671514 1.79073825 15.80897809 -0.3125 15.6875 C-3.81455244 15.56560248 -3.81455244 15.56560248 -7 16 C-9.7193624 18.87983662 -9.7193624 18.87983662 -12 22 C-14.60899828 22.59816058 -17.02226859 22.74812648 -19.6953125 22.796875 C-22.2777632 22.83886401 -22.2777632 22.83886401 -25 25 C-25.0825 25.78375 -25.165 26.5675 -25.25 27.375 C-26 30 -26 30 -29.3125 32.1875 C-30.53348227 32.80804037 -31.76227461 33.41356679 -33 34 C-33.804375 34.4125 -34.60875 34.825 -35.4375 35.25 C-35.953125 35.4975 -36.46875 35.745 -37 36 C-36.34 36.66 -35.68 37.32 -35 38 C-37.3125 40.5 -37.3125 40.5 -40 43 C-40.99 43 -41.98 43 -43 43 C-43.4375 39.875 -43.4375 39.875 -43 36 C-41.4724265 34.23775578 -39.8180669 32.95709726 -37.95703125 31.5546875 C-34.86093734 29.09511589 -32.47533513 26.06470063 -30 23 C-31.98 22.67 -33.96 22.34 -36 22 C-36 21.34 -36 20.68 -36 20 C-34.55859375 18.87890625 -34.55859375 18.87890625 -32.4375 17.5625 C-27.29731093 14.26854972 -22.43304811 10.66038133 -17.58178711 6.95922852 C-5.56065728 -2.03383642 -5.56065728 -2.03383642 0 0 Z " fill="#EBF0F6" transform="translate(104,28)"/>
<path d="M0 0 C3.3 0 6.6 0 10 0 C10 4.95 10 9.9 10 15 C15.28 15 20.56 15 26 15 C26 10.05 26 5.1 26 0 C27.65 0 29.3 0 31 0 C31 4.95 31 9.9 31 15 C35.45890972 14.8865873 39.91673148 14.75982667 44.375 14.625 C45.64601562 14.5940625 46.91703125 14.563125 48.2265625 14.53125 C49.43828125 14.49257812 50.65 14.45390625 51.8984375 14.4140625 C53.01911621 14.3826416 54.13979492 14.3512207 55.29443359 14.31884766 C58.14710412 14.26588797 58.14710412 14.26588797 60 12 C60 14.31 60 16.62 60 19 C59.505 18.01 59.505 18.01 59 17 C54.71 17 50.42 17 46 17 C46.144375 18.794375 46.28875 20.58875 46.4375 22.4375 C46.51871094 23.44683594 46.59992188 24.45617187 46.68359375 25.49609375 C46.73211468 27.93640779 46.73211468 27.93640779 48 29 C49.95169561 29.2039085 51.91363424 29.3138543 53.875 29.375 C55.47988281 29.44847656 55.47988281 29.44847656 57.1171875 29.5234375 C60.22518971 29.30912288 60.22518971 29.30912288 61.7578125 26.4765625 C62.16773438 25.65929687 62.57765625 24.84203125 63 24 C63.66 24 64.32 24 65 24 C65 26.31 65 28.62 65 31 C67.82249951 29.96508351 68.83374226 29.30084735 70.3125 26.625 C71.06824613 23.73942386 70.82071513 22.79043143 70 20 C69.42376233 14.00712825 70.68993925 9.91170305 74 5 C79.1454407 0.10555641 83.2994789 -0.2133512 90.125 -0.16796875 C93.97499773 0.05696318 97.31448843 0.88739273 101 2 C101 4.64 101 7.28 101 10 C100.34 10 99.68 10 99 10 C97.64721885 8.01310269 96.31431695 6.01254782 95 4 C91.3032604 2.1516302 87.03556179 2.52983746 83 3 C79.5448272 5.33224164 78.087609 8.01210032 77 12 C76.51892542 17.96532473 77.15373137 21.72913217 80 27 C84.65164589 30.10109726 89.55512476 29.755825 95 29 C97.43841382 27.56003135 98.34723421 26.36109399 100 24 C100.66 24.33 101.32 24.66 102 25 C98.29285349 29.8722497 95.95786583 32.43268365 89.68359375 33.33203125 C87.45728675 33.59333489 85.23380591 33.81506618 83 34 C83 35.32 83 36.64 83 38 C82.01 38.495 82.01 38.495 81 39 C81 39.66 81 40.32 81 41 C82.32 41 83.64 41 85 41 C84.67 41.99 84.34 42.98 84 44 C84 43.34 84 42.68 84 42 C82.02 42.99 82.02 42.99 80 44 C80 44.99 80 45.98 80 47 C80.66 47 81.32 47 82 47 C82 46.34 82 45.68 82 45 C84.375 44.375 84.375 44.375 87 44 C87.66 44.66 88.32 45.32 89 46 C88.01 46.99 88.01 46.99 87 48 C86.34 47.67 85.68 47.34 85 47 C85 47.99 85 48.98 85 50 C83.515 50.495 83.515 50.495 82 51 C82.495 52.98 82.495 52.98 83 55 C81.125 54.375 81.125 54.375 79 53 C77.8125 50.125 77.8125 50.125 77 47 C76.690625 45.824375 76.690625 45.824375 76.375 44.625 C76.189375 43.820625 76.189375 43.820625 76 43 C74.35 43.33 72.7 43.66 71 44 C72.65 44.66 74.3 45.32 76 46 C76 48 76 50 76 52 C74.515 51.505 74.515 51.505 73 51 C72.3125 48.9375 72.3125 48.9375 72 47 C71.34 47 70.68 47 70 47 C70 47.66 70 48.32 70 49 C69.34 49 68.68 49 68 49 C68 48.34 68 47.68 68 47 C66.68 47 65.36 47 64 47 C64 47.66 64 48.32 64 49 C63.01 48.505 63.01 48.505 62 48 C62 46.33333333 62 44.66666667 62 43 C61.34 43 60.68 43 60 43 C60.33 43.99 60.66 44.98 61 46 C60.34 46 59.68 46 59 46 C59 46.66 59 47.32 59 48 C57.68 47.67 56.36 47.34 55 47 C55 46.34 55 45.68 55 45 C55.66 45 56.32 45 57 45 C56.814375 44.0925 56.62875 43.185 56.4375 42.25 C55.81918819 37.65682657 55.81918819 37.65682657 57 35 C60 34 60 34 63 34 C52.11 33.505 52.11 33.505 41 33 C41 27.72 41 22.44 41 17 C37.7 17 34.4 17 31 17 C31 21.95 31 26.9 31 32 C29.35 32 27.7 32 26 32 C26 27.05 26 22.1 26 17 C20.72 17 15.44 17 10 17 C10 21.95 10 26.9 10 32 C8.35 32 6.7 32 5 32 C5 22.1 5 12.2 5 2 C3.35 2 1.7 2 0 2 C0 1.34 0 0.68 0 0 Z " fill="#1C255B" transform="translate(71,160)"/>
<path d="M0 0 C3.3 0 6.6 0 10 0 C10 5.28 10 10.56 10 16 C17.59 16 25.18 16 33 16 C33.495 17.485 33.495 17.485 34 19 C31.36 18.67 28.72 18.34 26 18 C26 18.66 26 19.32 26 20 C26.99 20.33 27.98 20.66 29 21 C28.01 21.33 27.02 21.66 26 22 C25.67 22.99 25.34 23.98 25 25 C25.66 25.33 26.32 25.66 27 26 C26 28 26 28 25 29 C25.33 29.66 25.66 30.32 26 31 C26.66 31 27.32 31 28 31 C28.33 29.35 28.66 27.7 29 26 C30.32 26.33 31.64 26.66 33 27 C32.34 28.98 31.68 30.96 31 33 C32.32 33.33 33.64 33.66 35 34 C34.505 34.99 34.505 34.99 34 36 C33.34 36 32.68 36 32 36 C32 36.66 32 37.32 32 38 C31.34 38 30.68 38 30 38 C30 37.34 30 36.68 30 36 C28.906875 36.185625 27.81375 36.37125 26.6875 36.5625 C23 37 23 37 20 36 C20.33 35.01 20.66 34.02 21 33 C21.99 33 22.98 33 24 33 C23.67 32.34 23.34 31.68 23 31 C22.960008 29.00039988 22.95653201 26.99952758 23 25 C22.34 25 21.68 25 21 25 C21 25.66 21 26.32 21 27 C20.01 27 19.02 27 18 27 C18 26.01 18 25.02 18 24 C17.34 24.33 16.68 24.66 16 25 C16 26.98 16 28.96 16 31 C15.01 31 14.02 31 13 31 C13.33 29.68 13.66 28.36 14 27 C13.01 26.34 12.02 25.68 11 25 C10.01 25.33 9.02 25.66 8 26 C8 25.34 8 24.68 8 24 C5.36 24 2.72 24 0 24 C0.99 24.33 1.98 24.66 3 25 C3 26.98 3 28.96 3 31 C1.125 30.8125 1.125 30.8125 -1 30 C-2.125 27.5 -2.125 27.5 -3 25 C-3.66 24.67 -4.32 24.34 -5 24 C-5.59355614 21.35139573 -5.74209269 18.70802678 -6 16 C-4.02 16 -2.04 16 0 16 C0 10.72 0 5.44 0 0 Z M18 37 C20 38 20 38 20 38 Z " fill="#121C51" transform="translate(102,177)"/>
<path d="M0 0 C-0.33 1.98 -0.66 3.96 -1 6 C0.98 6 2.96 6 5 6 C7.83022097 9.99560608 6.76210446 13.42737323 6 18 C7.65 18.33 9.3 18.66 11 19 C11.33 21.97 11.66 24.94 12 28 C10.68 28.33 9.36 28.66 8 29 C8.495 29.53625 8.99 30.0725 9.5 30.625 C11.42109443 33.66673285 11.45185216 35.46049143 11 39 C9.45493534 41.03667615 8.27853844 41.86073078 6 43 C6 43.66 6 44.32 6 45 C6.66 45.33 7.32 45.66 8 46 C7.30058404 49.14737182 6.23921302 52.02588876 5 55 C3.9275 55.12375 2.855 55.2475 1.75 55.375 C-1.45844739 55.90974123 -3.2398668 56.47716789 -6 58 C-7.3242287 58.36784131 -8.65613912 58.71202981 -10 59 C-10.495 57.515 -10.495 57.515 -11 56 C-10.18595703 55.21689453 -10.18595703 55.21689453 -9.35546875 54.41796875 C-2.6614163 47.53093461 -0.62486323 41.53450293 0.4375 32.125 C0.13551506 25.16496604 -2.13381821 17.06835432 -6.375 11.5 C-8 9 -8 9 -7.5 6.375 C-3.47368421 0 -3.47368421 0 0 0 Z " fill="#E8EDF5" transform="translate(147,60)"/>
<path d="M0 0 C3.3 0 6.6 0 10 0 C10 4.95 10 9.9 10 15 C15.28 15 20.56 15 26 15 C26 10.05 26 5.1 26 0 C27.65 0 29.3 0 31 0 C31 4.95 31 9.9 31 15 C35.45890972 14.8865873 39.91673148 14.75982667 44.375 14.625 C45.64601562 14.5940625 46.91703125 14.563125 48.2265625 14.53125 C49.43828125 14.49257812 50.65 14.45390625 51.8984375 14.4140625 C53.01911621 14.3826416 54.13979492 14.3512207 55.29443359 14.31884766 C58.14710412 14.26588797 58.14710412 14.26588797 60 12 C60 14.31 60 16.62 60 19 C59.505 18.01 59.505 18.01 59 17 C54.71 17 50.42 17 46 17 C46.144375 18.794375 46.28875 20.58875 46.4375 22.4375 C46.51871094 23.44683594 46.59992188 24.45617187 46.68359375 25.49609375 C46.73211468 27.93640779 46.73211468 27.93640779 48 29 C49.95169561 29.2039085 51.91363424 29.3138543 53.875 29.375 C55.47988281 29.44847656 55.47988281 29.44847656 57.1171875 29.5234375 C60.22518971 29.30912288 60.22518971 29.30912288 61.7578125 26.4765625 C62.16773438 25.65929687 62.57765625 24.84203125 63 24 C63.66 24 64.32 24 65 24 C64.125 30.875 64.125 30.875 63 32 C61.36527118 32.08700342 59.72685945 32.10701063 58.08984375 32.09765625 C57.10048828 32.09443359 56.11113281 32.09121094 55.09179688 32.08789062 C54.05087891 32.07951172 53.00996094 32.07113281 51.9375 32.0625 C50.89271484 32.05798828 49.84792969 32.05347656 48.77148438 32.04882812 C46.18096546 32.03699927 43.59047578 32.01906319 41 32 C41 27.05 41 22.1 41 17 C37.7 17 34.4 17 31 17 C31 21.95 31 26.9 31 32 C29.35 32 27.7 32 26 32 C26 27.05 26 22.1 26 17 C20.72 17 15.44 17 10 17 C10 21.95 10 26.9 10 32 C8.35 32 6.7 32 5 32 C5 22.1 5 12.2 5 2 C3.35 2 1.7 2 0 2 C0 1.34 0 0.68 0 0 Z " fill="#EAEEF6" transform="translate(71,160)"/>
<path d="M0 0 C0.99 0.66 1.98 1.32 3 2 C6.12521833 2.16699232 6.12521833 2.16699232 9 2 C9 2.66 9 3.32 9 4 C8.38125 4.165 7.7625 4.33 7.125 4.5 C3.72243051 6.90181375 3.77387974 10.00162134 3 14 C4.32 14 5.64 14 7 14 C6.625 15.9375 6.625 15.9375 6 18 C5.34 18.33 4.68 18.66 4 19 C4 21.97 4 24.94 4 28 C5.65 28 7.3 28 9 28 C9 29.32 9 30.64 9 32 C8.34 32 7.68 32 7 32 C8.2491742 35.45925163 9.67527795 38.14693203 12 41 C11.360625 41.680625 10.72125 42.36125 10.0625 43.0625 C7.6741507 46.46408839 7.32122847 48.90433701 7 53 C4.69 52.67 2.38 52.34 0 52 C3.81514686 57.36505028 6.7076835 59.08031022 13 61 C13 61.33 13 61.66 13 62 C7.86050618 63.13243084 7.86050618 63.13243084 5 63 C1.73879032 60.50205216 0.29856753 58.89570259 -1 55 C-1.99 54.34 -2.98 53.68 -4 53 C-3.34 53 -2.68 53 -2 53 C-2 52.34 -2 51.68 -2 51 C-2.66 51 -3.32 51 -4 51 C-3.34 49.68 -2.68 48.36 -2 47 C-1.5875 47.474375 -1.175 47.94875 -0.75 48.4375 C1.2004723 50.17899313 2.48852019 50.46553219 5 51 C4.74357696 49.08135229 4.46926564 47.16509006 4.1875 45.25 C4.03667969 44.18265625 3.88585937 43.1153125 3.73046875 42.015625 C2.98679593 38.94548906 2.07234528 37.33919522 0 35 C-0.33 36.32 -0.66 37.64 -1 39 C-1.99 39 -2.98 39 -4 39 C-3.34 33.39 -2.68 27.78 -2 22 C-2.66 22 -3.32 22 -4 22 C-4 18.37 -4 14.74 -4 11 C-5.65 10.67 -7.3 10.34 -9 10 C-9.33 9.01 -9.66 8.02 -10 7 C-9.34 7 -8.68 7 -8 7 C-8 7.66 -8 8.32 -8 9 C-3.48864333 6.80528594 -1.93726652 4.58826282 0 0 Z " fill="#171E4D" transform="translate(64,73)"/>
<path d="M0 0 C0.33 0 0.66 0 1 0 C1 4.95 1 9.9 1 15 C2.65 15 4.3 15 6 15 C6 15.33 6 15.66 6 16 C4.02 16 2.04 16 0 16 C0.59861742 18.35171131 1.26924352 20.6859378 2 23 C2.66 23.33 3.32 23.66 4 24 C4 25.32 4 26.64 4 28 C4.99 28.33 5.98 28.66 7 29 C5.125 29.625 5.125 29.625 3 30 C1.66666667 28.66666667 0.33333333 27.33333333 -1 26 C-2.01111093 29.04913228 -2.01111093 29.04913228 -1 32 C-2.32 31.67 -3.64 31.34 -5 31 C-5 31.66 -5 32.32 -5 33 C-5.99 33 -6.98 33 -8 33 C-8 30.36 -8 27.72 -8 25 C-8.66 25 -9.32 25 -10 25 C-10 25.66 -10 26.32 -10 27 C-13.72433382 25.7874262 -17.37802806 24.49140021 -21 23 C-20.67 21.35 -20.34 19.7 -20 18 C-18.02 17.34 -16.04 16.68 -14 16 C-14.01160156 15.00097656 -14.02320312 14.00195312 -14.03515625 12.97265625 C-14.04417969 11.68230469 -14.05320312 10.39195312 -14.0625 9.0625 C-14.07410156 7.77472656 -14.08570312 6.48695313 -14.09765625 5.16015625 C-14 2 -14 2 -13 1 C-11.33382885 0.95936168 -9.66611905 0.957279 -8 1 C-7.67 1.66 -7.34 2.32 -7 3 C-5.35 3 -3.7 3 -2 3 C-1.67 3.66 -1.34 4.32 -1 5 C-0.67 3.35 -0.34 1.7 0 0 Z " fill="#192259" transform="translate(96,177)"/>
<path d="M0 0 C0.66 0 1.32 0 2 0 C2 1.65 2 3.3 2 5 C3.01320313 4.91298828 3.01320313 4.91298828 4.046875 4.82421875 C11.32794624 4.45595648 11.32794624 4.45595648 14.625 7.125 C16.25226896 10.52747146 16.69723722 12.2814015 16 16 C13.37632897 19.20670904 10.84788585 21.4323428 7 23 C7 21.68 7 20.36 7 19 C5.35 18.67 3.7 18.34 2 18 C1.855625 17.236875 1.71125 16.47375 1.5625 15.6875 C1.0367406 12.91827092 1.0367406 12.91827092 0 10 C-0.66 10 -1.32 10 -2 10 C-1.95875 11.0725 -1.9175 12.145 -1.875 13.25 C-1.99186701 16.75601022 -2.37138821 18.06849877 -4 21 C-3.67 21.66 -3.34 22.32 -3 23 C-3.66 23.99 -4.32 24.98 -5 26 C-5.33 25.01 -5.66 24.02 -6 23 C-7.56481485 21.66471476 -7.56481485 21.66471476 -9.4375 20.5 C-12.13920842 18.74022333 -13.1327142 17.8009287 -15 15 C-15.46398337 11.44279415 -15.20890755 9.44765904 -13.6875 6.1875 C-9.56896138 2.83520112 -5.17097123 3.09807014 0 3 C0 2.01 0 1.02 0 0 Z " fill="#E3E8F6" transform="translate(114,44)"/>
<path d="M0 0 C1.98 0.66 3.96 1.32 6 2 C5.51058824 7.50588235 5.51058824 7.50588235 3.0625 9.875 C1 11 1 11 -1 11 C-1 11.33 -1 11.66 -1 12 C0.65 12 2.3 12 4 12 C4.14285714 20.57142857 4.14285714 20.57142857 3 24 C3.66 24 4.32 24 5 24 C5.22084624 30.09781001 5.01167675 35.21642935 3 41 C3.99 41 4.98 41 6 41 C6 39.35 6 37.7 6 36 C11.8961027 41.59373846 11.8961027 41.59373846 12.09765625 46.26171875 C12.08605469 47.06222656 12.07445313 47.86273438 12.0625 48.6875 C12.05347656 49.49574219 12.04445313 50.30398437 12.03515625 51.13671875 C12.02355469 51.75160156 12.01195313 52.36648437 12 53 C8.33754868 52.79071707 7.07436933 52.07082794 4.375 49.5 C1.90298254 46.29410236 0.81868889 42.95364831 -0.30859375 39.1015625 C-0.96921073 36.80986859 -0.96921073 36.80986859 -2.6875 34.3125 C-4.33610598 31.40781327 -4 29.28565273 -4 26 C-4.99 25.34 -5.98 24.68 -7 24 C-6.34 24 -5.68 24 -5 24 C-5 22.68 -5 21.36 -5 20 C-5.66 20 -6.32 20 -7 20 C-7 17.69 -7 15.38 -7 13 C-7.66 12.67 -8.32 12.34 -9 12 C-7.625 10.5 -7.625 10.5 -6 9 C-5.34 9 -4.68 9 -4 9 C-2.52960109 6.05920218 -1.28809274 3.02421774 0 0 Z " fill="#232B56" transform="translate(57,71)"/>
<path d="M0 0 C3.81684226 1.55500981 6.19195732 4.03595495 9 7 C7.15767888 10.90714478 4.78691425 14.33095318 2.33984375 17.87890625 C-0.1754831 21.86089599 -0.26619827 25.57365884 -0.5625 30.1875 C-0.64628906 31.45980469 -0.73007813 32.73210937 -0.81640625 34.04296875 C-0.87699219 35.01878906 -0.93757813 35.99460938 -1 37 C-1.99 36.67 -2.98 36.34 -4 36 C-4.99 38.475 -4.99 38.475 -6 41 C-7.65 41 -9.3 41 -11 41 C-11.33 38.03 -11.66 35.06 -12 32 C-11.01 31.34 -10.02 30.68 -9 30 C-8.67 29.01 -8.34 28.02 -8 27 C-9.32 27 -10.64 27 -12 27 C-11.25 19.25 -11.25 19.25 -9 17 C-8.01 17 -7.02 17 -6 17 C-6.66 16.01 -7.32 15.02 -8 14 C-7.65262237 10.61306808 -6.64599285 7.96278714 -5 5 C-3.02 5 -1.04 5 1 5 C0.67 3.35 0.34 1.7 0 0 Z " fill="#E5E9F3" transform="translate(79,60)"/>
<path d="M0 0 C1.32 0.33 2.64 0.66 4 1 C4.33 3.31 4.66 5.62 5 8 C6.32 8.33 7.64 8.66 9 9 C8.67447917 10.98567708 8.34895833 12.97135417 8.0234375 14.95703125 C7.80422152 17.31755824 7.80422152 17.31755824 10 20 C9.55555556 25.44444444 9.55555556 25.44444444 7 28 C6.60235737 29.98821313 6.26224651 31.98944339 6 34 C6.66 34.33 7.32 34.66 8 35 C6.35 35 4.7 35 3 35 C3 38.96 3 42.92 3 47 C2.01 47 1.02 47 0 47 C0 43.04 0 39.08 0 35 C-2.475 35.495 -2.475 35.495 -5 36 C-4.67447917 34.01432292 -4.34895833 32.02864583 -4.0234375 30.04296875 C-3.80422152 27.68244176 -3.80422152 27.68244176 -6 25 C-6.33957563 20.92509248 -6.31332486 19.46998729 -4 16 C-3.34 16 -2.68 16 -2 16 C-2.20625 14.88625 -2.4125 13.7725 -2.625 12.625 C-2.74875 11.42875 -2.8725 10.2325 -3 9 C-2.34 8.34 -1.68 7.68 -1 7 C-0.59952556 4.67724823 -0.2602896 2.34260643 0 0 Z " fill="#EDF1F6" transform="translate(112,54)"/>
<path d="M0 0 C6.84203258 -0.02584553 13.68405212 -0.0430687 20.52612305 -0.05493164 C22.84253408 -0.0598891 25.15894211 -0.06665705 27.4753418 -0.07543945 C43.01327245 -0.13277499 58.48342456 0.16323851 74 1 C74 1.66 74 2.32 74 3 C68.87207637 5.9835192 65.0676183 7.79575322 59 7 C54.61734684 5.80660149 50.30408664 4.4497976 46 3 C46.66 3.66 47.32 4.32 48 5 C48 5.99 48 6.98 48 8 C43.25 7.25 43.25 7.25 41 5 C37.70285207 5.32971479 36.3773161 5.6226839 34 8 C31.375 8.125 31.375 8.125 29 8 C29.66 6.68 30.32 5.36 31 4 C25.77774387 4.58281655 25.77774387 4.58281655 20.625 5.5625 C13.0890054 6.8184991 7.78797835 6.62367668 1.3984375 2.19140625 C0.93695313 1.79824219 0.47546875 1.40507812 0 1 C0 0.67 0 0.34 0 0 Z " fill="#F2F3FD" transform="translate(75,136)"/>
<path d="M0 0 C0.99 0 1.98 0 3 0 C3 0.99 3 1.98 3 3 C3.33 2.34 3.66 1.68 4 1 C4.99 1 5.98 1 7 1 C7.66 3.97 8.32 6.94 9 10 C9.66 10 10.32 10 11 10 C12.33935585 16.45326002 12.33935585 16.45326002 10.875 18.8125 C8.6697368 20.2091667 6.45943107 21.13587557 4 22 C4.33 19.36 4.66 16.72 5 14 C4.34 14 3.68 14 3 14 C2.690625 14.804375 2.38125 15.60875 2.0625 16.4375 C1 19 1 19 0 20 C-1.97619447 20.12514928 -3.95738173 20.1757276 -5.9375 20.1875 C-7.01902344 20.20167969 -8.10054688 20.21585938 -9.21484375 20.23046875 C-12 20 -12 20 -14 18 C-14.27629475 14.31975395 -14.0859315 10.69505443 -14 7 C-9.71 7 -5.42 7 -1 7 C-0.67 4.69 -0.34 2.38 0 0 Z " fill="#182054" transform="translate(131,170)"/>
<path d="M0 0 C2.15229884 3.22844826 2.60309873 5.18974777 3 9 C2.67 9.99 2.34 10.98 2 12 C1.896875 12.804375 1.79375 13.60875 1.6875 14.4375 C0.84260003 17.58667263 -0.57500629 18.8879087 -3 21 C-3.99 20.67 -4.98 20.34 -6 20 C-5.67 22.31 -5.34 24.62 -5 27 C-5.66 27 -6.32 27 -7 27 C-6.67 27.66 -6.34 28.32 -6 29 C-5.92907158 31.2072923 -5.91584975 33.41667452 -5.9375 35.625 C-5.94652344 36.81351563 -5.95554687 38.00203125 -5.96484375 39.2265625 C-5.97644531 40.14179687 -5.98804687 41.05703125 -6 42 C-7.98 42 -9.96 42 -12 42 C-12 40.35 -12 38.7 -12 37 C-12.66 37 -13.32 37 -14 37 C-13.60584988 33.61030893 -13.18715654 31.3023298 -11.375 28.375 C-9.7997832 26.15851154 -9.7997832 26.15851154 -10.125 23.9375 C-10.9275218 21.91891876 -10.9275218 21.91891876 -12.5 20.25 C-14.65776981 17.01334528 -15.16092885 13.86995561 -15 10 C-13.5625 7 -13.5625 7 -12 5 C-11.34 5.33 -10.68 5.66 -10 6 C-8.68 6.33 -7.36 6.66 -6 7 C-5.67 10.63 -5.34 14.26 -5 18 C-4.67 18 -4.34 18 -4 18 C-3.67 14.37 -3.34 10.74 -3 7 C-2.01 6.67 -1.02 6.34 0 6 C0 4.02 0 2.04 0 0 Z M-5 22 C-4.01 22.495 -4.01 22.495 -3 23 C-3.33 23.66 -3.66 24.32 -4 25 C-4.33 24.01 -4.66 23.02 -5 22 Z " fill="#E4EAF3" transform="translate(118,82)"/>
<path d="M0 0 C8.91 0 17.82 0 27 0 C27 2.31 27 4.62 27 7 C26.34 6.67 25.68 6.34 25 6 C24.01 6.495 24.01 6.495 23 7 C23.66 8.65 24.32 10.3 25 12 C24.34 12 23.68 12 23 12 C22.67 12.99 22.34 13.98 22 15 C13.09 15 4.18 15 -5 15 C-5 14.67 -5 14.34 -5 14 C-0.05 14 4.9 14 10 14 C10 13.34 10 12.68 10 12 C10.99 12 11.98 12 13 12 C11.81575674 10.58422523 11.81575674 10.58422523 8.4375 10.9375 C6.7359375 10.9684375 6.7359375 10.9684375 5 11 C5 8.03 5 5.06 5 2 C3.35 2 1.7 2 0 2 C0 1.34 0 0.68 0 0 Z " fill="#272E5E" transform="translate(107,160)"/>
<path d="M0 0 C0 2.64 0 5.28 0 8 C-0.66 8 -1.32 8 -2 8 C-3.35278115 6.01310269 -4.68568305 4.01254782 -6 2 C-9.6967396 0.1516302 -13.96443821 0.52983746 -18 1 C-21.4551728 3.33224164 -22.912391 6.01210032 -24 10 C-24.48107458 15.96532473 -23.84626863 19.72913217 -21 25 C-16.34835411 28.10109726 -11.44487524 27.755825 -6 27 C-3.56158618 25.56003135 -2.65276579 24.36109399 -1 22 C-0.34 22.33 0.32 22.66 1 23 C-4.2688172 29.92473118 -4.2688172 29.92473118 -9 31 C-15.00623029 31.62328805 -19.66436195 31.07825272 -25 28 C-28.03067151 25.19702143 -30.61559758 22.22842663 -31 18 C-31.1546875 16.39125 -31.1546875 16.39125 -31.3125 14.75 C-30.81939793 8.83277512 -28.73501541 4.65038051 -24.4375 0.5625 C-17.16325458 -4.10047784 -7.8539426 -2.37100154 0 0 Z " fill="#F0F3F9" transform="translate(172,162)"/>
<path d="M0 0 C6.51292247 -0.12524851 6.51292247 -0.12524851 9.1875 0.5625 C11.41518561 1.10021722 12.84457475 0.69281526 15 0 C15.66 0.99 16.32 1.98 17 3 C17.33 2.01 17.66 1.02 18 0 C18.33 1.32 18.66 2.64 19 4 C20.32 4 21.64 4 23 4 C23 4.66 23 5.32 23 6 C22.01 6.495 22.01 6.495 21 7 C21.33 7.99 21.66 8.98 22 10 C22.06802967 11.72795352 22.08495645 13.45835365 22.0625 15.1875 C22.05347656 16.08855469 22.04445312 16.98960938 22.03515625 17.91796875 C22.02355469 18.60503906 22.01195312 19.29210937 22 20 C17.72765783 20 17.01947821 19.70711839 14 17 C13.67 16.34 13.34 15.68 13 15 C12.34 15 11.68 15 11 15 C10.67 15.66 10.34 16.32 10 17 C6.83721473 14.89147648 6.48698821 14.38053749 5.3125 11 C4.93544922 9.948125 4.93544922 9.948125 4.55078125 8.875 C4 7 4 7 4 5 C3.01 4.67 2.02 4.34 1 4 C0.3125 1.9375 0.3125 1.9375 0 0 Z " fill="#181E4E" transform="translate(148,61)"/>
<path d="M0 0 C0.66 0 1.32 0 2 0 C2.66 0.99 3.32 1.98 4 3 C5.65 2.34 7.3 1.68 9 1 C7.75889043 10.47950928 4.66042745 21.73767338 -3 28 C-5.25 28.75 -5.25 28.75 -7 29 C-7.08160748 27.10489301 -7.13946459 25.20875496 -7.1875 23.3125 C-7.22230469 22.25675781 -7.25710937 21.20101562 -7.29296875 20.11328125 C-6.96666615 16.64577232 -5.99030125 14.81567552 -4 12 C-3.01 12.33 -2.02 12.66 -1 13 C-1 13.99 -1 14.98 -1 16 C-0.01 16 0.98 16 2 16 C1.505 15.01 1.01 14.02 0.5 13 C-1.29833837 8.84346319 -1.30990009 5.49355125 -1 1 C-0.67 0.67 -0.34 0.34 0 0 Z " fill="#E1E7F2" transform="translate(164,96)"/>
<path d="M0 0 C0.33 0 0.66 0 1 0 C1.22084624 6.09781001 1.01167675 11.21642935 -1 17 C-0.01 17 0.98 17 2 17 C2 15.35 2 13.7 2 12 C7.8961027 17.59373846 7.8961027 17.59373846 8.09765625 22.26171875 C8.08605469 23.06222656 8.07445313 23.86273438 8.0625 24.6875 C8.05347656 25.49574219 8.04445313 26.30398437 8.03515625 27.13671875 C8.02355469 27.75160156 8.01195313 28.36648437 8 29 C4.33754868 28.79071707 3.07436933 28.07082794 0.375 25.5 C-2.09701746 22.29410236 -3.18131111 18.95364831 -4.30859375 15.1015625 C-4.96921073 12.80986859 -4.96921073 12.80986859 -6.6875 10.3125 C-8.33970737 7.40146796 -8.22971563 5.29259071 -8 2 C-6 3 -4 4 -2 5 C-1.34 3.35 -0.68 1.7 0 0 Z " fill="#E3ECF7" transform="translate(61,95)"/>
<path d="M0 0 C0.33 1.65 0.66 3.3 1 5 C3.97 5.495 3.97 5.495 7 6 C6.6374306 8.45916635 6.28399921 9.72113772 4.48828125 11.484375 C-4.7769351 16.87383658 -15.6518288 15.4412432 -26 15 C-26 14.67 -26 14.34 -26 14 C-24.2984375 13.690625 -24.2984375 13.690625 -22.5625 13.375 C-14.98186597 11.47314482 -9.05207753 6.3033339 -3.41015625 1.1015625 C-2 0 -2 0 0 0 Z " fill="#E9EDF5" transform="translate(154,120)"/>
<path d="M0 0 C0.33 1.98 0.66 3.96 1 6 C-0.32 6 -1.64 6 -3 6 C-2.505 6.53625 -2.01 7.0725 -1.5 7.625 C0.39470082 10.62494296 0.30343947 12.51044604 0 16 C-0.33 16.66 -0.66 17.32 -1 18 C1.31 18 3.62 18 6 18 C6.33 17.01 6.66 16.02 7 15 C6.67 16.65 6.34 18.3 6 20 C5.01 20.33 4.02 20.66 3 21 C2.67 21.66 2.34 22.32 2 23 C1.01 22.67 0.02 22.34 -1 22 C-0.67 21.67 -0.34 21.34 0 21 C-1.65 20.67 -3.3 20.34 -5 20 C-4.67 18.02 -4.34 16.04 -4 14 C-6.64 13.67 -9.28 13.34 -12 13 C-11.67 13.99 -11.34 14.98 -11 16 C-12.32 15.67 -13.64 15.34 -15 15 C-14.8125 13.125 -14.8125 13.125 -14 11 C-11.4375 9.75 -11.4375 9.75 -9 9 C-10.32 9 -11.64 9 -13 9 C-12.67 7.68 -12.34 6.36 -12 5 C-11.34 5 -10.68 5 -10 5 C-10.99 3.68 -11.98 2.36 -13 1 C-11.20843648 0.83222817 -9.4167455 0.66581706 -7.625 0.5 C-6.62726563 0.4071875 -5.62953125 0.314375 -4.6015625 0.21875 C-2 0 -2 0 0 0 Z " fill="#131E50" transform="translate(165,192)"/>
<path d="M0 0 C11.55 0 23.1 0 35 0 C35 0.33 35 0.66 35 1 C26.42 1 17.84 1 9 1 C9 1.66 9 2.32 9 3 C10.65 3 12.3 3 14 3 C14 5.97 14 8.94 14 12 C16.31 12 18.62 12 21 12 C21.33 11.34 21.66 10.68 22 10 C22 10.99 22 11.98 22 13 C21.01 13 20.02 13 19 13 C19 13.66 19 14.32 19 15 C14.05 15 9.1 15 4 15 C4 10.38 4 5.76 4 1 C2.68 0.67 1.36 0.34 0 0 Z " fill="#0A1140" transform="translate(98,159)"/>
<path d="M0 0 C3.08044993 1.38347641 5.28546905 3.01600525 7.75 5.3125 C11.13278668 8.35827974 14.6003509 10.77174225 18.53125 13.0546875 C19.0159375 13.36664063 19.500625 13.67859375 20 14 C20 14.33 20 14.66 20 15 C17.29105233 15.08144943 14.58458737 15.14070614 11.875 15.1875 C10.73417969 15.22520508 10.73417969 15.22520508 9.5703125 15.26367188 C3.42565337 15.34312867 -0.63237954 14.05609145 -5.375 9.9375 C-7 8 -7 8 -7 6 C-4.69 6.33 -2.38 6.66 0 7 C0 4.69 0 2.38 0 0 Z " fill="#EFF4F8" transform="translate(71,119)"/>
<path d="M0 0 C0.66 0.33 1.32 0.66 2 1 C1.67421616 3.00124361 1.33944795 5.00102872 1 7 C0.95875 7.86625 0.9175 8.7325 0.875 9.625 C-0.49069738 13.33189289 -3.62182825 14.39942518 -7 16 C-7.804375 16.4125 -8.60875 16.825 -9.4375 17.25 C-9.953125 17.4975 -10.46875 17.745 -11 18 C-10.34 18.66 -9.68 19.32 -9 20 C-11.3125 22.5 -11.3125 22.5 -14 25 C-14.99 25 -15.98 25 -17 25 C-17.4375 21.875 -17.4375 21.875 -17 18 C-15.4724265 16.23775578 -13.8180669 14.95709726 -11.95703125 13.5546875 C-8.86093734 11.09511589 -6.47533513 8.06470063 -4 5 C-6.97 4.505 -6.97 4.505 -10 4 C-10 3.34 -10 2.68 -10 2 C-6.37566351 -0.79591672 -4.36726357 -1.41640981 0 0 Z " fill="#DFE5F0" transform="translate(78,46)"/>
<path d="M0 0 C0.66 0.33 1.32 0.66 2 1 C2 1.66 2 2.32 2 3 C3.32 2.67 4.64 2.34 6 2 C7.85776765 5.13498292 8.20140476 7.37471432 8 11 C7.34 10.67 6.68 10.34 6 10 C6 10.66 6 11.32 6 12 C6.66 12 7.32 12 8 12 C8 12.99 8 13.98 8 15 C7.34 15 6.68 15 6 15 C6 15.99 6 16.98 6 18 C5.34 18 4.68 18 4 18 C3.67 19.65 3.34 21.3 3 23 C-0.03336186 23.22893297 -2.97465051 23.36475845 -6 23 C-8.0625 21 -8.0625 21 -9 19 C-8.01 19 -7.02 19 -6 19 C-6 18.34 -6 17.68 -6 17 C-5.34 17 -4.68 17 -4 17 C-3.67 16.01 -3.34 15.02 -3 14 C-0.69 14.33 1.62 14.66 4 15 C4 14.34 4 13.68 4 13 C2.68 13 1.36 13 0 13 C0 8.71 0 4.42 0 0 Z " fill="#E4E9F0" transform="translate(115,111)"/>
<path d="M0 0 C3.3 0 6.6 0 10 0 C10 10.56 10 21.12 10 32 C8.35 32 6.7 32 5 32 C5 22.1 5 12.2 5 2 C3.35 2 1.7 2 0 2 C0 1.34 0 0.68 0 0 Z " fill="#EFF2F9" transform="translate(71,160)"/>
<path d="M0 0 C1.8125 1.3125 1.8125 1.3125 3 3 C3 3.99 3 4.98 3 6 C4.32 5.67 5.64 5.34 7 5 C7.33 5.99 7.66 6.98 8 8 C8.66 8.66 9.32 9.32 10 10 C9.34 11.32 8.68 12.64 8 14 C6.68 13.34 5.36 12.68 4 12 C3.67 12.99 3.34 13.98 3 15 C6.3 15.33 9.6 15.66 13 16 C13 16.33 13 16.66 13 17 C8.71 17 4.42 17 0 17 C0 18.32 0 19.64 0 21 C2.31 21 4.62 21 7 21 C7 21.33 7 21.66 7 22 C4.03 22.33 1.06 22.66 -2 23 C-1.67 21.02 -1.34 19.04 -1 17 C-1.66 16.67 -2.32 16.34 -3 16 C-2.01 15.34 -1.02 14.68 0 14 C0.72382467 11.94074861 0.72382467 11.94074861 1 10 C0.34 10 -0.32 10 -1 10 C-1 8.68 -1 7.36 -1 6 C-2.97536745 6.34786708 -2.97536745 6.34786708 -5 7 C-5.33 7.66 -5.66 8.32 -6 9 C-6.99 7.68 -7.98 6.36 -9 5 C-6.8965142 0.34228145 -5.1466536 -0.50211255 0 0 Z M-5 16 C-4.01 16.495 -4.01 16.495 -3 17 C-3 17.99 -3 18.98 -3 20 C-3.66 20 -4.32 20 -5 20 C-5 18.68 -5 17.36 -5 16 Z " fill="#E5EBEF" transform="translate(117,27)"/>
<path d="M0 0 C1.65 0 3.3 0 5 0 C5 10.56 5 21.12 5 32 C3.35 32 1.7 32 0 32 C0 21.44 0 10.88 0 0 Z " fill="#EBEDF6" transform="translate(58,160)"/>
<path d="M0 0 C1.85625 0.1546875 1.85625 0.1546875 3.75 0.3125 C3.75 0.6425 3.75 0.9725 3.75 1.3125 C1.44 1.3125 -0.87 1.3125 -3.25 1.3125 C-3.25 2.3025 -3.25 3.2925 -3.25 4.3125 C-0.61 4.9725 2.03 5.6325 4.75 6.3125 C4.91713443 10.65799507 4.86265602 13.50971917 2.75 17.3125 C3.08 17.9725 3.41 18.6325 3.75 19.3125 C3.09 20.3025 2.43 21.2925 1.75 22.3125 C1.42 21.3225 1.09 20.3325 0.75 19.3125 C-0.81481485 17.97721476 -0.81481485 17.97721476 -2.6875 16.8125 C-5.38920842 15.05272333 -6.3827142 14.1134287 -8.25 11.3125 C-8.7309429 7.62527109 -8.47917499 5.75175206 -6.75 2.4375 C-4.01112567 0.10945682 -3.41890388 0.00606189 0 0 Z " fill="#E0E7F1" transform="translate(107.25,47.6875)"/>
<path d="M0 0 C41.8145181 -0.20638953 41.8145181 -0.20638953 62 1 C62 1.66 62 2.32 62 3 C56.88289762 5.9772232 53.05815746 7.80775433 47 7 C42.94236198 5.81588425 38.9664365 4.45891917 35 3 C35 2.67 35 2.34 35 2 C23.45 1.67 11.9 1.34 0 1 C0 0.67 0 0.34 0 0 Z " fill="#C8CDE0" transform="translate(87,136)"/>
<path d="M0 0 C1.0625 1.8125 1.0625 1.8125 2 4 C1.67 4.99 1.34 5.98 1 7 C1.99 6.67 2.98 6.34 4 6 C3.67 7.65 3.34 9.3 3 11 C4.32 11.33 5.64 11.66 7 12 C7.33 13.65 7.66 15.3 8 17 C7.01 17 6.02 17 5 17 C4.67 16.01 4.34 15.02 4 14 C3.34 13.67 2.68 13.34 2 13 C-0.03165952 17.33420699 -0.52060632 21.28596212 -1 26 C-1.66 25.34 -2.32 24.68 -3 24 C-5.58354218 23.83312552 -5.58354218 23.83312552 -8 24 C-8 23.67 -8 23.34 -8 23 C-9.65 22.67 -11.3 22.34 -13 22 C-13 21.67 -13 21.34 -13 21 C-9.535 20.505 -9.535 20.505 -6 20 C-5.814375 18.88625 -5.814375 18.88625 -5.625 17.75 C-5.04513299 15.19858515 -4.26291261 13.2732427 -3 11 C-3.99 10.67 -4.98 10.34 -6 10 C-5.67 9.01 -5.34 8.02 -5 7 C-2.9375 6.3125 -2.9375 6.3125 -1 6 C-0.67 4.02 -0.34 2.04 0 0 Z " fill="#1F2453" transform="translate(158,95)"/>
<path d="M0 0 C3.81684226 1.55500981 6.19195732 4.03595495 9 7 C7.61716552 9.97841273 6.33197257 12.66802743 4 15 C0.3125 15.75 0.3125 15.75 -3 16 C-3 16.66 -3 17.32 -3 18 C-3.66 18 -4.32 18 -5 18 C-4.67 16.02 -4.34 14.04 -4 12 C-4.66 11.67 -5.32 11.34 -6 11 C-4.68 10.01 -3.36 9.02 -2 8 C-2.66 7.67 -3.32 7.34 -4 7 C-2.35 6.67 -0.7 6.34 1 6 C0.67 4.02 0.34 2.04 0 0 Z " fill="#EAEDF9" transform="translate(79,60)"/>
<path d="M0 0 C0.2475 0.556875 0.495 1.11375 0.75 1.6875 C2.21606015 4.39971127 4.02989471 6.63587365 6 9 C5.0409375 10.0209375 5.0409375 10.0209375 4.0625 11.0625 C1.6741507 14.46408839 1.32122847 16.90433701 1 21 C-1.31 20.67 -3.62 20.34 -6 20 C-2.18485314 25.36505028 0.7076835 27.08031022 7 29 C7 29.33 7 29.66 7 30 C1.86050618 31.13243084 1.86050618 31.13243084 -1 31 C-4.26120968 28.50205216 -5.70143247 26.89570259 -7 23 C-7.99 22.34 -8.98 21.68 -10 21 C-9.34 21 -8.68 21 -8 21 C-8 20.34 -8 19.68 -8 19 C-8.66 19 -9.32 19 -10 19 C-9.34 17.68 -8.68 16.36 -8 15 C-7.5875 15.474375 -7.175 15.94875 -6.75 16.4375 C-4.817815 18.16266518 -3.51807725 18.56584875 -1 19 C-1.020625 17.88625 -1.04125 16.7725 -1.0625 15.625 C-1 12 -1 12 0 10 C0.66 10 1.32 10 2 10 C1.80528889 8.05000871 1.80528889 8.05000871 1 6 C-0.9837767 4.71563266 -0.9837767 4.71563266 -3 4 C-2.67 3.01 -2.34 2.02 -2 1 C-1.34 0.67 -0.68 0.34 0 0 Z " fill="#1A214B" transform="translate(70,105)"/>
<path d="M0 0 C2.53524446 1.01409778 3.77139002 1.61497266 5.1875 4 C5.455625 4.66 5.72375 5.32 6 6 C6.33 6.66 6.66 7.32 7 8 C6.34 8 5.68 8 5 8 C5 8.66 5 9.32 5 10 C5.66 10.33 6.32 10.66 7 11 C6.34 12.32 5.68 13.64 5 15 C5.99 15.33 6.98 15.66 8 16 C6.68 16 5.36 16 4 16 C3.67 15.34 3.34 14.68 3 14 C1.824375 14.2784375 1.824375 14.2784375 0.625 14.5625 C-2 15 -2 15 -4 14 C-3.67 16.97 -3.34 19.94 -3 23 C-3.99 23 -4.98 23 -6 23 C-5.505 18.545 -5.505 18.545 -5 14 C-5.99 13.67 -6.98 13.34 -8 13 C-8.33 12.34 -8.66 11.68 -9 11 C-9.33 11.99 -9.66 12.98 -10 14 C-10.33 12.68 -10.66 11.36 -11 10 C-12.32 9.67 -13.64 9.34 -15 9 C-15 8.01 -15 7.02 -15 6 C-8.40044878 6.3413561 -5.8108964 7.53273905 -1 12 C-0.34 12 0.32 12 1 12 C1.02698189 10.37509046 1.04638757 8.75005367 1.0625 7.125 C1.07410156 6.22007813 1.08570313 5.31515625 1.09765625 4.3828125 C1.16249257 1.9831415 1.16249257 1.9831415 0 0 Z " fill="#0D1544" transform="translate(168,69)"/>
<path d="M0 0 C0.66 0.66 1.32 1.32 2 2 C4.68839385 2.26991906 7.29141936 2.08737357 10 2 C10.33 2.66 10.66 3.32 11 4 C8.36 4.33 5.72 4.66 3 5 C3.49371094 5.37511719 3.98742187 5.75023437 4.49609375 6.13671875 C9.7941681 10.36878216 9.7941681 10.36878216 10.9375 13.875 C10.958125 14.57625 10.97875 15.2775 11 16 C5.74587663 15.58791189 2.71663943 14.82282913 -1 11 C-2.3125 8.25 -2.3125 8.25 -3 6 C-5.31 5.67 -7.62 5.34 -10 5 C-6.73454239 3.11608215 -3.71888239 2.50712033 0 2 C0 1.34 0 0.68 0 0 Z " fill="#DBE0EE" transform="translate(148,46)"/>
<path d="M0 0 C9.07692308 -0.15384615 9.07692308 -0.15384615 13 1 C13.66 1.66 14.32 2.32 15 3 C14.625 5.125 14.625 5.125 14 7 C14.33 7 14.66 7 15 7 C15 4.69 15 2.38 15 0 C15.99 0 16.98 0 18 0 C18 0.99 18 1.98 18 3 C18.99 3 19.98 3 21 3 C20.67 2.01 20.34 1.02 20 0 C21.32 0.33 22.64 0.66 24 1 C23.67 3.31 23.34 5.62 23 8 C22.34 8 21.68 8 21 8 C21 7.01 21 6.02 21 5 C20.01 5 19.02 5 18 5 C18 6.32 18 7.64 18 9 C16.02 9 14.04 9 12 9 C11.67 8.34 11.34 7.68 11 7 C10.01 8.485 10.01 8.485 9 10 C9 7.69 9 5.38 9 3 C8.01 3 7.02 3 6 3 C6 2.34 6 1.68 6 1 C5.34 1 4.68 1 4 1 C4 3.31 4 5.62 4 8 C3.67 8 3.34 8 3 8 C3 5.69 3 3.38 3 1 C2.01 1.33 1.02 1.66 0 2 C0 1.34 0 0.68 0 0 Z " fill="#4F5787" transform="translate(102,201)"/>
<path d="M0 0 C8.91 0 17.82 0 27 0 C27 2.31 27 4.62 27 7 C26.47921875 6.35546875 25.9584375 5.7109375 25.421875 5.046875 C22.29024582 2.40014324 20.30226904 2.41209076 16.25 2.25 C14.49429688 2.16492188 14.49429688 2.16492188 12.703125 2.078125 C11.81109375 2.05234375 10.9190625 2.0265625 10 2 C10 4.64 10 7.28 10 10 C8.35 10 6.7 10 5 10 C5 7.36 5 4.72 5 2 C3.35 2 1.7 2 0 2 C0 1.34 0 0.68 0 0 Z " fill="#E0E6F0" transform="translate(107,160)"/>
<path d="M0 0 C0 2.64 0 5.28 0 8 C-0.66 8 -1.32 8 -2 8 C-3.35278115 6.01310269 -4.68568305 4.01254782 -6 2 C-9.68876027 0.15561987 -13.97330313 0.51211266 -18 1 C-20.57637471 2.88515223 -21.59667428 4.19334857 -23 7 C-25.475 6.01 -25.475 6.01 -28 5 C-19.67581169 -3.78664322 -11.19611362 -3.37995883 0 0 Z " fill="#DDE2EB" transform="translate(172,162)"/>
<path d="M0 0 C0.99 0.66 1.98 1.32 3 2 C6.12521833 2.16699232 6.12521833 2.16699232 9 2 C9 2.66 9 3.32 9 4 C8.38125 4.165 7.7625 4.33 7.125 4.5 C3.72243051 6.90181375 3.77387974 10.00162134 3 14 C2.67 13.01 2.34 12.02 2 11 C1.01 11 0.02 11 -1 11 C-1.33 11.99 -1.66 12.98 -2 14 C-2 12.68 -2 11.36 -2 10 C-3.98 10.33 -5.96 10.66 -8 11 C-8.66 9.68 -9.32 8.36 -10 7 C-9.34 7 -8.68 7 -8 7 C-8 7.66 -8 8.32 -8 9 C-3.48864333 6.80528594 -1.93726652 4.58826282 0 0 Z " fill="#101849" transform="translate(64,73)"/>
<path d="M0 0 C2.16874252 0.50603992 3.99967627 0.99983813 6 2 C7.67654729 1.72057545 9.34608154 1.39171753 11 1 C11 1.66 11 2.32 11 3 C14.56071312 4.04882391 18.05527897 4.30386953 21.75 4.5625 C22.92046875 4.64628906 24.0909375 4.73007813 25.296875 4.81640625 C26.18890625 4.87699219 27.0809375 4.93757812 28 5 C28 5.33 28 5.66 28 6 C17.39092894 7.41454281 7.44042198 7.58700722 -3 5 C-2.34 4.67 -1.68 4.34 -1 4 C-0.34786708 1.97536745 -0.34786708 1.97536745 0 0 Z " fill="#313660" transform="translate(119,130)"/>
<path d="M0 0 C12.2922671 -0.92064136 12.2922671 -0.92064136 16.34765625 1.265625 C18.125 2.875 18.125 2.875 19.5703125 4.4921875 C21.2135438 6.22521286 22.82994908 7.0407071 25 8 C19.47787611 8.37650845 19.47787611 8.37650845 16.9375 6.375 C16.298125 5.92125 15.65875 5.4675 15 5 C13.31422289 5.61674772 11.64551962 6.28272222 10 7 C9.01 6.34 8.02 5.68 7 5 C4.67612053 4.60612212 2.34206251 4.26513915 0 4 C0 2.68 0 1.36 0 0 Z " fill="#101846" transform="translate(117,44)"/>
<path d="M0 0 C0.66 0 1.32 0 2 0 C2 1.65 2 3.3 2 5 C3.98 5 5.96 5 8 5 C8 4.01 8 3.02 8 2 C8.66 2 9.32 2 10 2 C10 2.99 10 3.98 10 5 C11.65 5 13.3 5 15 5 C15 5.66 15 6.32 15 7 C12.69 7 10.38 7 8 7 C7.67 7.66 7.34 8.32 7 9 C6.34 9 5.68 9 5 9 C5.33 9.99 5.66 10.98 6 12 C3.69 11.34 1.38 10.68 -1 10 C-0.34 9.67 0.32 9.34 1 9 C0.67 8.34 0.34 7.68 0 7 C-1.175625 7.0928125 -1.175625 7.0928125 -2.375 7.1875 C-3.24125 7.125625 -4.1075 7.06375 -5 7 C-5.66 6.01 -6.32 5.02 -7 4 C-3.98968256 3.06576355 -3.13349732 2.95550089 0 4 C0 2.68 0 1.36 0 0 Z " fill="#EEF3F9" transform="translate(104,119)"/>
<path d="M0 0 C3.875 1.875 3.875 1.875 5 3 C7.18019479 3.39666227 9.3696463 3.74315237 11.5625 4.0625 C13.35880859 4.32740234 13.35880859 4.32740234 15.19140625 4.59765625 C16.11824219 4.73042969 17.04507813 4.86320313 18 5 C18 5.33 18 5.66 18 6 C4.8 6 -8.4 6 -22 6 C-22 5.67 -22 5.34 -22 5 C-21.00097656 4.95101562 -20.00195312 4.90203125 -18.97265625 4.8515625 C-17.68230469 4.77679688 -16.39195313 4.70203125 -15.0625 4.625 C-13.77472656 4.55539063 -12.48695312 4.48578125 -11.16015625 4.4140625 C-10.11730469 4.27742187 -9.07445313 4.14078125 -8 4 C-7.67 3.34 -7.34 2.68 -7 2 C-4.03 2.495 -4.03 2.495 -1 3 C-0.67 2.01 -0.34 1.02 0 0 Z " fill="#070A3A" transform="translate(104,130)"/>
<path d="M0 0 C0.99 0.66 1.98 1.32 3 2 C3 2.99 3 3.98 3 5 C4.98 5 6.96 5 9 5 C9.6875 7.3125 9.6875 7.3125 10 10 C8.9375 11.875 8.9375 11.875 7 13 C2.41949617 12.79642205 -1.01747254 11.1809079 -5 9 C-4.34 7.35 -3.68 5.7 -3 4 C-2.67 5.32 -2.34 6.64 -2 8 C-1.855625 7.236875 -1.71125 6.47375 -1.5625 5.6875 C-1 3 -1 3 0 0 Z " fill="#EAECF0" transform="translate(96,120)"/>
<path d="M0 0 C0.33 0 0.66 0 1 0 C1.55353075 10.55808656 1.55353075 10.55808656 -2 15 C-4.35900131 12.85545335 -5.91146131 11.01441484 -7 8 C-7.0777346 5.66796188 -7.08967728 3.33160941 -7 1 C-5.5459375 1.0309375 -5.5459375 1.0309375 -4.0625 1.0625 C-1.12534105 1.35618499 -1.12534105 1.35618499 0 0 Z " fill="#D6DDEC" transform="translate(171,82)"/>
<path d="M0 0 C2.31 0 4.62 0 7 0 C7.45293073 8.90763766 7.45293073 8.90763766 4 13 C3.01 13 2.02 13 1 13 C-0.32229189 10.35541621 -0.09677194 8.32238699 -0.0625 5.375 C-0.05347656 4.37210937 -0.04445312 3.36921875 -0.03515625 2.3359375 C-0.02355469 1.56507812 -0.01195312 0.79421875 0 0 Z " fill="#E7F0F7" transform="translate(54,83)"/>
<path d="M0 0 C3.3 0 6.6 0 10 0 C9.69404824 3.56943715 8.97575359 5.03014419 6.6875 7.875 C5.800625 8.57625 4.91375 9.2775 4 10 C2.68 9.67 1.36 9.34 0 9 C0 6.03 0 3.06 0 0 Z " fill="#151D48" transform="translate(116,53)"/>
<path d="M0 0 C5.28 0 10.56 0 16 0 C16 0.66 16 1.32 16 2 C10.77228537 5.04157942 7.07328688 6.50610724 1 6 C0.67 4.02 0.34 2.04 0 0 Z " fill="#E8ECF4" transform="translate(133,137)"/>
<path d="M0 0 C4.875 4.625 4.875 4.625 6 8 C6.03954234 10.33299825 6.04401732 12.66708189 6 15 C4.35 14.67 2.7 14.34 1 14 C1 12.35 1 10.7 1 9 C0.34 9 -0.32 9 -1 9 C-1.33 8.34 -1.66 7.68 -2 7 C-2.66 7 -3.32 7 -4 7 C-4 6.34 -4 5.68 -4 5 C-2.68 5 -1.36 5 0 5 C0 3.35 0 1.7 0 0 Z " fill="#E8EDF5" transform="translate(63,107)"/>
<path d="M0 0 C4.62 0 9.24 0 14 0 C14 1.65 14 3.3 14 5 C13.07767578 5.05607422 13.07767578 5.05607422 12.13671875 5.11328125 C11.32847656 5.17902344 10.52023438 5.24476562 9.6875 5.3125 C8.88699219 5.37050781 8.08648437 5.42851563 7.26171875 5.48828125 C4.61257517 6.0876557 3.79526159 7.03626811 2 9 C1.34 9 0.68 9 0 9 C0 6.03 0 3.06 0 0 Z " fill="#0D1847" transform="translate(98,43)"/>
<path d="M0 0 C3.96 0 7.92 0 12 0 C12.33 1.32 12.66 2.64 13 4 C12.39671875 4.12117187 11.7934375 4.24234375 11.171875 4.3671875 C10.37265625 4.53476563 9.5734375 4.70234375 8.75 4.875 C7.56664063 5.11863281 7.56664063 5.11863281 6.359375 5.3671875 C4.03168856 5.99150075 2.10968048 6.84838542 0 8 C0 5.36 0 2.72 0 0 Z " fill="#121A49" transform="translate(118,177)"/>
<path d="M0 0 C0.66 0.33 1.32 0.66 2 1 C-3.2688172 7.92473118 -3.2688172 7.92473118 -8 9 C-13.42332757 9.46284428 -17.90275931 9.09117567 -23 7 C-22.34 6.67 -21.68 6.34 -21 6 C-20.67 5.01 -20.34 4.02 -20 3 C-19.01 3.66 -18.02 4.32 -17 5 C-12.45312066 5.61531843 -7.17473488 6.28425702 -3.1015625 3.87890625 C-1.57852332 2.40041048 -1.57852332 2.40041048 0 0 Z " fill="#E6EBF5" transform="translate(171,184)"/>
<path d="M0 0 C2.15229884 3.22844826 2.60309873 5.18974777 3 9 C2.67 9.99 2.34 10.98 2 12 C1.896875 12.845625 1.79375 13.69125 1.6875 14.5625 C1.460625 15.366875 1.23375 16.17125 1 17 C-0.98 17.99 -0.98 17.99 -3 19 C-3 15.04 -3 11.08 -3 7 C-2.01 6.67 -1.02 6.34 0 6 C0 4.02 0 2.04 0 0 Z " fill="#C9CFE1" transform="translate(118,82)"/>
<path d="M0 0 C4.95 0 9.9 0 15 0 C15 4.95 15 9.9 15 15 C14.67 15 14.34 15 14 15 C13.67 11.7 13.34 8.4 13 5 C12.21625 4.855625 11.4325 4.71125 10.625 4.5625 C8 4 8 4 6 3 C6.33 2.34 6.66 1.68 7 1 C5.35 1.33 3.7 1.66 2 2 C1.67 6.29 1.34 10.58 1 15 C0.67 15 0.34 15 0 15 C0 10.05 0 5.1 0 0 Z " fill="#0A1041" transform="translate(81,177)"/>
<path d="M0 0 C0.99 0.66 1.98 1.32 3 2 C3.39247837 5.0744139 3.58322475 7.0927615 1.875 9.75 C0 11 0 11 -3.125 12 C-4.548125 12.495 -4.548125 12.495 -6 13 C-6.33 13.99 -6.66 14.98 -7 16 C-7.99 15.67 -8.98 15.34 -10 15 C-9.34 11.7 -8.68 8.4 -8 5 C-7.01 5.99 -6.02 6.98 -5 8 C-5 8.99 -5 9.98 -5 11 C-4.34 11 -3.68 11 -3 11 C-2.67 10.01 -2.34 9.02 -2 8 C-1.34 8 -0.68 8 0 8 C0 5.36 0 2.72 0 0 Z " fill="#E1E7F2" transform="translate(155,91)"/>
<path d="M0 0 C0.66 0.33 1.32 0.66 2 1 C1.67 1.99 1.34 2.98 1 4 C2.65 3.67 4.3 3.34 6 3 C6 5.31 6 7.62 6 10 C6.99 10.33 7.98 10.66 9 11 C5.7 11 2.4 11 -1 11 C-1.09765625 3.28515625 -1.09765625 3.28515625 -1 1 C-0.67 0.67 -0.34 0.34 0 0 Z " fill="#171F55" transform="translate(104,162)"/>
<path d="M0 0 C1.32 0.99 2.64 1.98 4 3 C2.02 3.99 2.02 3.99 0 5 C0.66 5.66 1.32 6.32 2 7 C-0.3125 9.5 -0.3125 9.5 -3 12 C-3.99 12 -4.98 12 -6 12 C-6.375 8.8125 -6.375 8.8125 -6 5 C-4.18811972 2.8596502 -2.34198833 1.61011698 0 0 Z " fill="#E0E4F2" transform="translate(67,59)"/>
<path d="M0 0 C0 1.32 0 2.64 0 4 C0.66 4 1.32 4 2 4 C2 5.98 2 7.96 2 10 C-1.98196457 11.05404945 -4.98195309 10.84098656 -9 10 C-8.34 9.01 -7.68 8.02 -7 7 C-7 7.66 -7 8.32 -7 9 C-6.34 9 -5.68 9 -5 9 C-5.2475 8.2575 -5.495 7.515 -5.75 6.75 C-6 4 -6 4 -4.1875 1.6875 C-2 0 -2 0 0 0 Z " fill="#F4F5FB" transform="translate(116,33)"/>
<path d="M0 0 C0.66 0.33 1.32 0.66 2 1 C3.32 1.33 4.64 1.66 6 2 C6 5.96 6 9.92 6 14 C5.34 14 4.68 14 4 14 C3.01 11.69 2.02 9.38 1 7 C0.34 7 -0.32 7 -1 7 C-1.625 5.1875 -1.625 5.1875 -2 3 C-1.34 2.01 -0.68 1.02 0 0 Z " fill="#BDC4DA" transform="translate(106,87)"/>
<path d="M0 0 C0.66 0 1.32 0 2 0 C1.67 1.98 1.34 3.96 1 6 C2.98 6 4.96 6 7 6 C7 6.66 7 7.32 7 8 C6.05125 7.938125 5.1025 7.87625 4.125 7.8125 C2.578125 7.9053125 2.578125 7.9053125 1 8 C0.01 9.485 0.01 9.485 -1 11 C-1.66 10.67 -2.32 10.34 -3 10 C-3.33 10.66 -3.66 11.32 -4 12 C-4.66 10.35 -5.32 8.7 -6 7 C-5.04882866 5.8274869 -4.08882991 4.66212985 -3.125 3.5 C-2.59132812 2.8503125 -2.05765625 2.200625 -1.5078125 1.53125 C-0.76144531 0.77328125 -0.76144531 0.77328125 0 0 Z " fill="#DCE1F2" transform="translate(145,60)"/>
<path d="M0 0 C2.97 0.33 5.94 0.66 9 1 C9 3.31 9 5.62 9 8 C7.35 8.33 5.7 8.66 4 9 C0 3.375 0 3.375 0 0 Z " fill="#272E55" transform="translate(103,53)"/>
<path d="M0 0 C3.81684226 1.55500981 6.19195732 4.03595495 9 7 C6.35541621 8.32229189 4.32238699 8.09677194 1.375 8.0625 C0.37210937 8.05347656 -0.63078125 8.04445313 -1.6640625 8.03515625 C-2.43492188 8.02355469 -3.20578125 8.01195313 -4 8 C-4.33 8.66 -4.66 9.32 -5 10 C-5.66 8.68 -6.32 7.36 -7 6 C-4.69 6.33 -2.38 6.66 0 7 C0 4.69 0 2.38 0 0 Z " fill="#D6DAEC" transform="translate(71,119)"/>
<path d="M0 0 C0.78375 0.04125 1.5675 0.0825 2.375 0.125 C2.045 1.115 1.715 2.105 1.375 3.125 C1.375 2.465 1.375 1.805 1.375 1.125 C-0.605 2.115 -0.605 2.115 -2.625 3.125 C-2.625 4.115 -2.625 5.105 -2.625 6.125 C-1.965 6.125 -1.305 6.125 -0.625 6.125 C-0.625 5.465 -0.625 4.805 -0.625 4.125 C1.75 3.5 1.75 3.5 4.375 3.125 C5.035 3.785 5.695 4.445 6.375 5.125 C5.715 5.785 5.055 6.445 4.375 7.125 C3.715 6.795 3.055 6.465 2.375 6.125 C2.375 7.115 2.375 8.105 2.375 9.125 C1.385 9.455 0.395 9.785 -0.625 10.125 C-0.295 11.445 0.035 12.765 0.375 14.125 C-1.5703125 13.4375 -1.5703125 13.4375 -3.625 12.125 C-4.3046875 9.8125 -4.3046875 9.8125 -4.5 7.125 C-4.57992187 6.238125 -4.65984375 5.35125 -4.7421875 4.4375 C-4.5637154 0.91565066 -3.44648438 0.1641183 0 0 Z " fill="#7480A7" transform="translate(153.625,200.875)"/>
<path d="M0 0 C2.1367793 2.31484424 2.95843145 3.72683526 3.4375 6.875 C2.89498729 10.75009081 1.34729859 12.9191706 -1 16 C-1.99 15.67 -2.98 15.34 -4 15 C-3.855625 14.484375 -3.71125 13.96875 -3.5625 13.4375 C-2.91952461 10.8408892 -2.91952461 10.8408892 -2.5625 7.5 C-2.07826401 4.48697604 -1.54543446 2.5757241 0 0 Z " fill="#DCE6F4" transform="translate(121,88)"/>
<path d="M0 0 C-0.226875 0.763125 -0.45375 1.52625 -0.6875 2.3125 C-0.790625 3.199375 -0.89375 4.08625 -1 5 C-0.525625 5.45375 -0.05125 5.9075 0.4375 6.375 C2.45673541 8.47500483 2.4797348 9.82034018 2.6875 12.6875 C2.78611328 13.89986328 2.78611328 13.89986328 2.88671875 15.13671875 C2.92410156 15.75160156 2.96148437 16.36648437 3 17 C1.68 17.33 0.36 17.66 -1 18 C-0.67 16.35 -0.34 14.7 0 13 C-0.66 13 -1.32 13 -2 13 C-2.103125 11.9275 -2.20625 10.855 -2.3125 9.75 C-2.98602236 6.07624166 -3.65874989 4.74842404 -6 2 C-6 1.34 -6 0.68 -6 0 C-3.50907189 -1.24546405 -2.58919267 -0.7767578 0 0 Z " fill="#111847" transform="translate(161,89)"/>
<path d="M0 0 C0 2.64 0 5.28 0 8 C-1.32 8 -2.64 8 -4 8 C-8 3.88888889 -8 3.88888889 -8 0 C-4.71303767 -0.79953138 -3.28976808 -1.09658936 0 0 Z " fill="#DDE5F2" transform="translate(170,73)"/>
<path d="M0 0 C1.32 0 2.64 0 4 0 C4 1.32 4 2.64 4 4 C3.01 4 2.02 4 1 4 C0.67 4.99 0.34 5.98 0 7 C-0.33 7.33 -0.66 7.66 -1 8 C0.32 8.66 1.64 9.32 3 10 C3 11.32 3 12.64 3 14 C2.34 14 1.68 14 1 14 C0.67 14.66 0.34 15.32 0 16 C-4.23632385 9.10284464 -4.23632385 9.10284464 -3.25 4.5 C-2.8375 3.675 -2.425 2.85 -2 2 C-1.34 2 -0.68 2 0 2 C0 1.34 0 0.68 0 0 Z " fill="#141B48" transform="translate(69,101)"/>
<path d="M0 0 C1.98 0.66 3.96 1.32 6 2 C5.51058824 7.50588235 5.51058824 7.50588235 3.0625 9.875 C1 11 1 11 -1 11 C-1.0270043 9.54176788 -1.04639787 8.08339325 -1.0625 6.625 C-1.07410156 5.81289062 -1.08570313 5.00078125 -1.09765625 4.1640625 C-1 2 -1 2 0 0 Z " fill="#E0E6F6" transform="translate(57,71)"/>
<path d="M0 0 C0.99 0 1.98 0 3 0 C5.09350689 3.4019487 5.17942163 6.05272412 5 10 C1 10 1 10 -1.25 8.125 C-3 6 -3 6 -3 4 C-2.01 4 -1.02 4 0 4 C0 2.68 0 1.36 0 0 Z " fill="#D9E1EF" transform="translate(160,61)"/>
<path d="M0 0 C2.3125 -0.3125 2.3125 -0.3125 5 0 C7.54842549 3.18553186 8.25582186 6.06648699 9 10 C9.66 10.66 10.32 11.32 11 12 C7.71303767 12.79953138 6.28976808 13.09658936 3 12 C3 11.01 3 10.02 3 9 C3.66 9 4.32 9 5 9 C5 8.34 5 7.68 5 7 C4.34 6.67 3.68 6.34 3 6 C3.33 5.01 3.66 4.02 4 3 C2.35 2.67 0.7 2.34 -1 2 C-0.67 1.34 -0.34 0.68 0 0 Z " fill="#101A4E" transform="translate(142,203)"/>
<path d="M0 0 C0.66 0 1.32 0 2 0 C2.33 1.65 2.66 3.3 3 5 C5.97 5.495 5.97 5.495 9 6 C8.67 7.32 8.34 8.64 8 10 C7.34 10 6.68 10 6 10 C6 9.01 6 8.02 6 7 C5.2575 7.495 4.515 7.99 3.75 8.5 C1 10 1 10 -3 10 C-2.25 2.25 -2.25 2.25 0 0 Z " fill="#E2E8F2" transform="translate(152,120)"/>
<path d="M0 0 C0.99 0 1.98 0 3 0 C3 3.96 3 7.92 3 12 C1.35 12 -0.3 12 -2 12 C-1.85904936 10.3745692 -1.71207913 8.74965949 -1.5625 7.125 C-1.48128906 6.22007813 -1.40007812 5.31515625 -1.31640625 4.3828125 C-1 2 -1 2 0 0 Z " fill="#41486F" transform="translate(109,112)"/>
<path d="M0 0 C0.66 0 1.32 0 2 0 C1.67 2.31 1.34 4.62 1 7 C1.99 7 2.98 7 4 7 C4 7.66 4 8.32 4 9 C3.34 9 2.68 9 2 9 C1.67 9.99 1.34 10.98 1 12 C0.67 11.01 0.34 10.02 0 9 C-3.00847418 7.77479736 -3.00847418 7.77479736 -6 7 C-5.67 5.35 -5.34 3.7 -5 2 C-4.360625 1.855625 -3.72125 1.71125 -3.0625 1.5625 C-1.02454854 1.18992819 -1.02454854 1.18992819 0 0 Z " fill="#F1F5F9" transform="translate(151,72)"/>
<path d="M0 0 C1.375 2.5625 1.375 2.5625 2 5 C1.01 4.34 0.02 3.68 -1 3 C-4.63939932 3.31730524 -4.63939932 3.31730524 -8 4 C-8.21081851 7.89459074 -8.21081851 7.89459074 -7 11 C-10.29148243 9.86500606 -10.9959869 9.00716624 -12.75 5.875 C-13.1625 4.92625 -13.575 3.9775 -14 3 C-12.02 2.67 -10.04 2.34 -8 2 C-8 1.34 -8 0.68 -8 0 C-5.01122021 -1.4943899 -3.14997454 -0.91874257 0 0 Z " fill="#1C2048" transform="translate(118,25)"/>
<path d="M0 0 C0.33 0 0.66 0 1 0 C1 2.31 1 4.62 1 7 C1.99 6.67 2.98 6.34 4 6 C4.33 8.31 4.66 10.62 5 13 C5.99 13 6.98 13 8 13 C8.33 14.32 8.66 15.64 9 17 C8.34 17.33 7.68 17.66 7 18 C2.76456744 15.10207246 1.0666028 13.04212234 0 8 C-0.14093171 5.30771832 -0.09310392 2.70001377 0 0 Z " fill="#222351" transform="translate(147,172)"/>
<path d="M0 0 C3.3 0 6.6 0 10 0 C10.66 1.65 11.32 3.3 12 5 C13.98 5 15.96 5 18 5 C18 5.33 18 5.66 18 6 C11.27547968 6.62008896 6.99823372 6.07584987 1.3984375 2.19140625 C0.93695313 1.79824219 0.47546875 1.40507812 0 1 C0 0.67 0 0.34 0 0 Z " fill="#DAE2F2" transform="translate(75,136)"/>
<path d="M0 0 C0.625 1.8125 0.625 1.8125 1 4 C0.01 5.485 0.01 5.485 -1 7 C-0.01 7.99 0.98 8.98 2 10 C0.02 10.33 -1.96 10.66 -4 11 C-4 11.66 -4 12.32 -4 13 C-4.66 13 -5.32 13 -6 13 C-5.67 11.02 -5.34 9.04 -5 7 C-5.66 6.67 -6.32 6.34 -7 6 C-5.68 5.01 -4.36 4.02 -3 3 C-3.66 2.67 -4.32 2.34 -5 2 C-3.35 1.34 -1.7 0.68 0 0 Z " fill="#F4F7F8" transform="translate(80,65)"/>
<path d="M0 0 C0.66 0 1.32 0 2 0 C1.34 2.97 0.68 5.94 0 9 C-2.97 8.505 -2.97 8.505 -6 8 C-5.67 8.66 -5.34 9.32 -5 10 C-9.75 9.25 -9.75 9.25 -12 7 C-11.34 7 -10.68 7 -10 7 C-10 6.34 -10 5.68 -10 5 C-8.906875 4.855625 -7.81375 4.71125 -6.6875 4.5625 C-3.06877013 4.11711896 -3.06877013 4.11711896 0 3 C0 2.01 0 1.02 0 0 Z " fill="#F0F7FC" transform="translate(114,44)"/>
<path d="M0 0 C0.66 0.33 1.32 0.66 2 1 C1.34 2.98 0.68 4.96 0 7 C0.7425 6.690625 1.485 6.38125 2.25 6.0625 C4.50692176 5.1905075 6.6450153 4.52332993 9 4 C8.67 5.65 8.34 7.3 8 9 C3.94568308 10.15837626 1.78187881 9.83691257 -2 8 C-1.125 1.125 -1.125 1.125 0 0 Z " fill="#EFF4FA" transform="translate(149,123)"/>
<path d="M0 0 C0.99 0.66 1.98 1.32 3 2 C3 5.07297956 2.8921178 8.00906725 2.625 11.0625 C2.55539063 11.91972656 2.48578125 12.77695313 2.4140625 13.66015625 C2 16 2 16 0 19 C-1.0625 17.125 -1.0625 17.125 -2 15 C-1.67 14.34 -1.34 13.68 -1 13 C-0.9547463 11.16722527 -0.96141206 9.33292719 -1 7.5 C-1.11111111 2.22222222 -1.11111111 2.22222222 0 0 Z " fill="#0F1946" transform="translate(124,85)"/>
<path d="M0 0 C3.40147591 1.20697532 5.14245264 2.93504686 7 6 C7 6.99 7 7.98 7 9 C4.69 8.67 2.38 8.34 0 8 C-0.66 5.69 -1.32 3.38 -2 1 C-1.34 0.67 -0.68 0.34 0 0 Z " fill="#E7EEF9" transform="translate(152,53)"/>
<path d="M0 0 C2.64 0.66 5.28 1.32 8 2 C8 4.31 8 6.62 8 9 C6.1875 9.625 6.1875 9.625 4 10 C3.01 9.34 2.02 8.68 1 8 C1 7.34 1 6.68 1 6 C1.66 6 2.32 6 3 6 C3 5.01 3 4.02 3 3 C2.01 3.33 1.02 3.66 0 4 C0 2.68 0 1.36 0 0 Z " fill="#F0F3F9" transform="translate(120,120)"/>
<path d="M0 0 C0.99 0 1.98 0 3 0 C3 0.99 3 1.98 3 3 C3.99 3 4.98 3 6 3 C5.67 2.01 5.34 1.02 5 0 C6.32 0.33 7.64 0.66 9 1 C8.67 3.31 8.34 5.62 8 8 C7.34 8 6.68 8 6 8 C6 7.01 6 6.02 6 5 C5.01 5 4.02 5 3 5 C3 6.32 3 7.64 3 9 C2.01 9 1.02 9 0 9 C0 6.03 0 3.06 0 0 Z " fill="#A8B1D1" transform="translate(117,201)"/>
<path d="M0 0 C0.66 0 1.32 0 2 0 C1.67 1.32 1.34 2.64 1 4 C2.32 3.67 3.64 3.34 5 3 C4.67 3.99 4.34 4.98 4 6 C4.66 6 5.32 6 6 6 C6 7.65 6 9.3 6 11 C7.65 11.33 9.3 11.66 11 12 C11 12.66 11 13.32 11 14 C7.2393218 13.7851041 6.02891527 13.02760094 3.25 10.375 C0.73056958 7.12106478 0.24628487 4.10474782 0 0 Z " fill="#D8DDEC" transform="translate(58,110)"/>
<path d="M0 0 C1.65 0 3.3 0 5 0 C5.66666667 2.66666667 6.33333333 5.33333333 7 8 C5.68 7.67 4.36 7.34 3 7 C3 7.66 3 8.32 3 9 C2.01 9 1.02 9 0 9 C0 6.03 0 3.06 0 0 Z " fill="#9CA4C6" transform="translate(88,201)"/>
<path d="M0 0 C1.7290774 -0.02725341 3.45828176 -0.04650987 5.1875 -0.0625 C6.15042969 -0.07410156 7.11335937 -0.08570313 8.10546875 -0.09765625 C10.85576513 -0.00486622 13.32479591 0.37888315 16 1 C16 3.64 16 6.28 16 9 C15.34 9 14.68 9 14 9 C13.505 8.05125 13.01 7.1025 12.5 6.125 C11.02251438 3.71556192 10.24110297 3.08188403 7.515625 2.15625 C5.01253857 1.67543114 2.53297411 1.28036736 0 1 C0 0.67 0 0.34 0 0 Z " fill="#BBC4D9" transform="translate(156,161)"/>
<path d="M0 0 C0.2475 0.556875 0.495 1.11375 0.75 1.6875 C2.21606015 4.39971127 4.02989471 6.63587365 6 9 C4.02 11.31 2.04 13.62 0 16 C-1 12 -1 12 0 10 C0.66 10 1.32 10 2 10 C1.80528889 8.05000871 1.80528889 8.05000871 1 6 C-0.9837767 4.71563266 -0.9837767 4.71563266 -3 4 C-2.67 3.01 -2.34 2.02 -2 1 C-1.34 0.67 -0.68 0.34 0 0 Z " fill="#28305E" transform="translate(70,105)"/>
<path d="M0 0 C1.65 0.99 3.3 1.98 5 3 C5.66 3.33 6.32 3.66 7 4 C7.33 4.99 7.66 5.98 8 7 C8.66 7.33 9.32 7.66 10 8 C9.67 8.66 9.34 9.32 9 10 C7.68 9.67 6.36 9.34 5 9 C5 10.32 5 11.64 5 13 C4.34 13 3.68 13 3 13 C2.01 8.71 1.02 4.42 0 0 Z " fill="#10184B" transform="translate(120,109)"/>
<path d="M0 0 C0.66 0 1.32 0 2 0 C2.66 0.99 3.32 1.98 4 3 C5.65 2.34 7.3 1.68 9 1 C8.8125 3.375 8.8125 3.375 8 6 C5.4375 7.3125 5.4375 7.3125 3 8 C2.67 6.68 2.34 5.36 2 4 C1.34 4 0.68 4 0 4 C0 5.65 0 7.3 0 9 C-0.33 9 -0.66 9 -1 9 C-1.09765625 2.84765625 -1.09765625 2.84765625 -1 1 C-0.67 0.67 -0.34 0.34 0 0 Z " fill="#E4ECF7" transform="translate(164,96)"/>
<path d="M0 0 C1.98 0 3.96 0 6 0 C5.01 0.66 4.02 1.32 3 2 C3.99 2.33 4.98 2.66 6 3 C5.34 3 4.68 3 4 3 C3.67 3.66 3.34 4.32 3 5 C2.01 5.33 1.02 5.66 0 6 C0.33 6.99 0.66 7.98 1 9 C0.5625 11.1875 0.5625 11.1875 0 13 C-1.32 12.67 -2.64 12.34 -4 12 C-3.01 12 -2.02 12 -1 12 C-1.66 11.01 -2.32 10.02 -3 9 C-2.65262237 5.61306808 -1.64599285 2.96278714 0 0 Z " fill="#E0E6EF" transform="translate(74,65)"/>
<path d="M0 0 C2.53541298 0.09086451 5.03554784 0.2370945 7.5625 0.4375 C8.62887695 0.51581055 8.62887695 0.51581055 9.71679688 0.59570312 C11.47821999 0.72574107 13.23916173 0.86226897 15 1 C15 1.33 15 1.66 15 2 C10.71 2 6.42 2 2 2 C2 3.32 2 4.64 2 6 C4.31 6 6.62 6 9 6 C9 6.33 9 6.66 9 7 C4.545 7.495 4.545 7.495 0 8 C0.33 6.02 0.66 4.04 1 2 C0.34 1.67 -0.32 1.34 -1 1 C-0.67 0.67 -0.34 0.34 0 0 Z M-3 1 C-2.01 1.495 -2.01 1.495 -1 2 C-1 2.99 -1 3.98 -1 5 C-1.66 5 -2.32 5 -3 5 C-3 3.68 -3 2.36 -3 1 Z " fill="#C1C6DA" transform="translate(115,42)"/>
<path d="M0 0 C2.30142435 1.78174788 3.80034391 3.16304165 4.48828125 6.046875 C4.72323102 8.0246611 4.86751458 10.01271872 5 12 C4.01 12 3.02 12 2 12 C1.34 13.65 0.68 15.3 0 17 C-0.33 16.34 -0.66 15.68 -1 15 C-0.0625 12.375 -0.0625 12.375 1 10 C0.67 9.67 0.34 9.34 0 9 C-0.07179964 7.48071962 -0.08392007 5.95832518 -0.0625 4.4375 C-0.05347656 3.61121094 -0.04445312 2.78492188 -0.03515625 1.93359375 C-0.02355469 1.29550781 -0.01195312 0.65742188 0 0 Z " fill="#0D1749" transform="translate(132,172)"/>
<path d="M0 0 C0.66 0.33 1.32 0.66 2 1 C2 2.65 2 4.3 2 6 C1.34 6 0.68 6 0 6 C0 7.65 0 9.3 0 11 C-1.32 10.67 -2.64 10.34 -4 10 C-4 7.36 -4 4.72 -4 2 C-3.01 2 -2.02 2 -1 2 C-0.67 1.34 -0.34 0.68 0 0 Z " fill="#F0F3F5" transform="translate(149,104)"/>
<path d="M0 0 C1.65 0 3.3 0 5 0 C5 2.64 5 5.28 5 8 C4.34 7.34 3.68 6.68 3 6 C0.41645782 5.83312552 0.41645782 5.83312552 -2 6 C-2 5.67 -2 5.34 -2 5 C-3.65 4.67 -5.3 4.34 -7 4 C-7 3.67 -7 3.34 -7 3 C-3.535 2.505 -3.535 2.505 0 2 C0 1.34 0 0.68 0 0 Z " fill="#29315D" transform="translate(152,113)"/>
<path d="M0 0 C0.33 1.32 0.66 2.64 1 4 C1.804375 3.690625 1.804375 3.690625 2.625 3.375 C5.90852004 2.85654947 7.99401842 3.66400819 11 5 C11.33 5.99 11.66 6.98 12 8 C8.65474779 8.83631305 6.24869444 9.29947778 3 8 C1.25 6.75 1.25 6.75 0 5 C-0.1875 2.3125 -0.1875 2.3125 0 0 Z " fill="#202562" transform="translate(60,67)"/>
<path d="M0 0 C0.33 0 0.66 0 1 0 C1 2.31 1 4.62 1 7 C0.67 6.34 0.34 5.68 0 5 C-4.62 5.33 -9.24 5.66 -14 6 C-14.33 5.01 -14.66 4.02 -15 3 C-14.00097656 2.95101562 -13.00195312 2.90203125 -11.97265625 2.8515625 C-10.68230469 2.77679688 -9.39195313 2.70203125 -8.0625 2.625 C-6.77472656 2.55539063 -5.48695312 2.48578125 -4.16015625 2.4140625 C-3.11730469 2.27742187 -2.07445313 2.14078125 -1 2 C-0.67 1.34 -0.34 0.68 0 0 Z " fill="#D6DCEF" transform="translate(130,172)"/>
<path d="M0 0 C5.94 0.99 5.94 0.99 12 2 C12 2.66 12 3.32 12 4 C11.01 4 10.02 4 9 4 C9 4.66 9 5.32 9 6 C6.75 6.25 6.75 6.25 4 6 C1.6875 4.125 1.6875 4.125 0 2 C0 1.34 0 0.68 0 0 Z " fill="#242C59" transform="translate(80,124)"/>
<path d="M0 0 C3.27779873 3.27779873 3.40494034 3.8360813 3.6875 8.1875 C3.75324219 9.08855469 3.81898437 9.98960938 3.88671875 10.91796875 C3.92410156 11.60503906 3.96148437 12.29210937 4 13 C2.68 13 1.36 13 0 13 C0 8.71 0 4.42 0 0 Z " fill="#202148" transform="translate(115,111)"/>
<path d="M0 0 C1.98 0 3.96 0 6 0 C5.67 1.65 5.34 3.3 5 5 C4.67 3.68 4.34 2.36 4 1 C3.34 1 2.68 1 2 1 C2 2.98 2 4.96 2 7 C3.32 6.67 4.64 6.34 6 6 C6 6.99 6 7.98 6 9 C3.69 9 1.38 9 -1 9 C-0.67 6.03 -0.34 3.06 0 0 Z " fill="#A6AED6" transform="translate(165,201)"/>
<path d="M0 0 C0.66 0 1.32 0 2 0 C1.125 6.875 1.125 6.875 0 8 C-2.35694954 7.90968426 -4.71153582 7.75311872 -7.0625 7.5625 C-8.35285156 7.46066406 -9.64320312 7.35882813 -10.97265625 7.25390625 C-12.47119141 7.12822266 -12.47119141 7.12822266 -14 7 C-14 6.67 -14 6.34 -14 6 C-13.24074219 5.98582031 -12.48148437 5.97164062 -11.69921875 5.95703125 C-8.7208174 5.81409889 -5.91989218 5.61335013 -3 5 C-0.8613923 2.61012067 -0.8613923 2.61012067 0 0 Z " fill="#CACFE3" transform="translate(134,184)"/>
<path d="M0 0 C0 0.66 0 1.32 0 2 C0.66 2.33 1.32 2.66 2 3 C1.195625 3.474375 0.39125 3.94875 -0.4375 4.4375 C-2.84753488 5.76900154 -2.84753488 5.76900154 -4 7 C-5.66617115 7.04063832 -7.33388095 7.042721 -9 7 C-8.649375 6.38125 -8.29875 5.7625 -7.9375 5.125 C-7.628125 4.42375 -7.31875 3.7225 -7 3 C-7.33 2.34 -7.66 1.68 -8 1 C-2.25 0 -2.25 0 0 0 Z " fill="#D7DEEB" transform="translate(113,137)"/>
<path d="M0 0 C2.0625 2.25 2.0625 2.25 4 5 C3.875 7.25 3.875 7.25 3 9 C2.01 9.495 2.01 9.495 1 10 C-0.32 8.68 -1.64 7.36 -3 6 C-2.01 4.02 -1.02 2.04 0 0 Z " fill="#F1F4FB" transform="translate(75,94)"/>
<path d="M0 0 C1.32 0.66 2.64 1.32 4 2 C3.814375 2.70125 3.62875 3.4025 3.4375 4.125 C2.94843024 7.33888698 3.33768442 9.83560336 4 13 C3.34 13 2.68 13 2 13 C-0.40385693 8.79325038 -1.45226612 5.86186074 -1 1 C-0.67 0.67 -0.34 0.34 0 0 Z " fill="#E1E7F3" transform="translate(107,72)"/>
<path d="M0 0 C2.97 0.495 2.97 0.495 6 1 C6 1.66 6 2.32 6 3 C7.32 3.33 8.64 3.66 10 4 C7.36 3.67 4.72 3.34 2 3 C1.34 4.32 0.68 5.64 0 7 C0 6.01 0 5.02 0 4 C-2.31 3.67 -4.62 3.34 -7 3 C-6.67 2.34 -6.34 1.68 -6 1 C-4.35 1 -2.7 1 -1 1 C-0.67 1.66 -0.34 2.32 0 3 C0 2.01 0 1.02 0 0 Z " fill="#DAE4EB" transform="translate(114,50)"/>
<path d="M0 0 C0.66 0 1.32 0 2 0 C2.99 2.97 3.98 5.94 5 9 C4.01 9 3.02 9 2 9 C2 8.01 2 7.02 2 6 C1.01 6.495 1.01 6.495 0 7 C0 7.66 0 8.32 0 9 C-0.99 9 -1.98 9 -3 9 C-2.01 6.03 -1.02 3.06 0 0 Z " fill="#A1A8CD" transform="translate(75,201)"/>
<path d="M0 0 C1.32 0.66 2.64 1.32 4 2 C3 5 3 5 1 8 C-1.625 9.1875 -1.625 9.1875 -4 10 C-3.67 7.69 -3.34 5.38 -3 3 C-2.34 3.66 -1.68 4.32 -1 5 C-0.67 3.35 -0.34 1.7 0 0 Z " fill="#101646" transform="translate(139,182)"/>
<path d="M0 0 C0.99 1.32 1.98 2.64 3 4 C3.7425 3.690625 4.485 3.38125 5.25 3.0625 C7.50692176 2.1905075 9.6450153 1.52332993 12 1 C12.33 1.66 12.66 2.32 13 3 C12.34 3 11.68 3 11 3 C11.33 3.99 11.66 4.98 12 6 C10.18757948 6.02687279 8.37504767 6.04633715 6.5625 6.0625 C5.55316406 6.07410156 4.54382813 6.08570312 3.50390625 6.09765625 C1 6 1 6 0 5 C-0.04063832 3.33382885 -0.042721 1.66611905 0 0 Z " fill="#1E264D" transform="translate(154,120)"/>
<path d="M0 0 C0 3 0 3 -2.5 5.6875 C-3.325 6.450625 -4.15 7.21375 -5 8 C-6.98 7.01 -8.96 6.02 -11 5 C-8.22920113 1.19015156 -4.37131855 0.93159248 0 0 Z " fill="#DEE3EB" transform="translate(87,67)"/>
<path d="M0 0 C3.96 0 7.92 0 12 0 C11.67 1.65 11.34 3.3 11 5 C10.01 5.33 9.02 5.66 8 6 C7.62875 5.525625 7.2575 5.05125 6.875 4.5625 C4.37353038 2.47794198 2.18406582 2.35378509 -1 2 C-0.67 1.34 -0.34 0.68 0 0 Z " fill="#242E5B" transform="translate(76,58)"/>
<path d="M0 0 C0.99 0 1.98 0 3 0 C3 0.99 3 1.98 3 3 C3.99 2.67 4.98 2.34 6 2 C6 2.66 6 3.32 6 4 C5.01 4 4.02 4 3 4 C2.67 5.32 2.34 6.64 2 8 C-0.86724686 7.42655063 -1.8614515 7.1385485 -4 5 C-3.01 4.67 -2.02 4.34 -1 4 C-0.26676204 1.98491642 -0.26676204 1.98491642 0 0 Z " fill="#212C5A" transform="translate(120,206)"/>
<path d="M0 0 C2.64 0 5.28 0 8 0 C8 1.65 8 3.3 8 5 C7.01 5 6.02 5 5 5 C5 4.01 5 3.02 5 2 C4.01 2.495 4.01 2.495 3 3 C3 4.98 3 6.96 3 9 C2.01 9 1.02 9 0 9 C0.185625 8.443125 0.37125 7.88625 0.5625 7.3125 C1.07551165 4.600867 0.6640724 2.65628961 0 0 Z " fill="#121B47" transform="translate(115,199)"/>
<path d="M0 0 C0.33 0.99 0.66 1.98 1 3 C2.32 2.67 3.64 2.34 5 2 C5.66 3.98 6.32 5.96 7 8 C6.01 8 5.02 8 4 8 C3.67 7.01 3.34 6.02 3 5 C2.34 4.67 1.68 4.34 1 4 C0.67 4.99 0.34 5.98 0 7 C-0.99 6.67 -1.98 6.34 -3 6 C-3 5.01 -3 4.02 -3 3 C-2.34 3 -1.68 3 -1 3 C-0.67 2.01 -0.34 1.02 0 0 Z " fill="#232B56" transform="translate(159,104)"/>
<path d="M0 0 C0.66 0.33 1.32 0.66 2 1 C2 1.99 2 2.98 2 4 C3.32 4 4.64 4 6 4 C6 4.66 6 5.32 6 6 C5.01 6.495 5.01 6.495 4 7 C4.33 8.65 4.66 10.3 5 12 C2.03 11.505 2.03 11.505 -1 11 C-0.67 7.37 -0.34 3.74 0 0 Z " fill="#1F2A57" transform="translate(165,61)"/>
<path d="M0 0 C1.75 1.5625 1.75 1.5625 3 3 C2.67 3.66 2.34 4.32 2 5 C-3.5 5.36666667 -3.5 5.36666667 -5.875 3.625 C-7 2 -7 2 -7 0 C-3.83170302 -1.05609899 -3.01480825 -1.13055309 0 0 Z " fill="#DDE4EC" transform="translate(104,28)"/>
<path d="M0 0 C0.66 0.99 1.32 1.98 2 3 C0.906875 3.12375 -0.18625 3.2475 -1.3125 3.375 C-5.07381802 3.75464801 -5.07381802 3.75464801 -8 6 C-8 4.68 -8 3.36 -8 2 C-4.79191085 -0.1387261 -3.72301503 -0.47730962 0 0 Z " fill="#D9E1EF" transform="translate(117,27)"/>
<path d="M0 0 C7.046875 -0.16015625 7.046875 -0.16015625 10 1 C10.66 1.99 11.32 2.98 12 4 C11.67 4.99 11.34 5.98 11 7 C10.67 5.68 10.34 4.36 10 3 C8.6078125 3.5259375 8.6078125 3.5259375 7.1875 4.0625 C4 5 4 5 1 4 C0.3125 1.9375 0.3125 1.9375 0 0 Z " fill="#0C1641" transform="translate(145,117)"/>
<path d="M0 0 C0.6875 1.6875 0.6875 1.6875 1 4 C-0.25 6.75 -0.25 6.75 -2 9 C-2.99 9 -3.98 9 -5 9 C-5.33 7.35 -5.66 5.7 -6 4 C-5.01 4 -4.02 4 -3 4 C-3 3.34 -3 2.68 -3 2 C-2.01 2 -1.02 2 0 2 C0 1.34 0 0.68 0 0 Z " fill="#DFE8F4" transform="translate(60,87)"/>
<path d="M0 0 C2.97 0 5.94 0 9 0 C8.67 0.66 8.34 1.32 8 2 C6.35 2 4.7 2 3 2 C3.33 3.32 3.66 4.64 4 6 C3.01 6.495 3.01 6.495 2 7 C2 6.34 2 5.68 2 5 C1.34 5 0.68 5 0 5 C-0.33 5.66 -0.66 6.32 -1 7 C-1.99 6.34 -2.98 5.68 -4 5 C-3.01 4.67 -2.02 4.34 -1 4 C-0.67 2.68 -0.34 1.36 0 0 Z " fill="#1B2460" transform="translate(159,71)"/>
<path d="M0 0 C0.66 0.33 1.32 0.66 2 1 C2 1.66 2 2.32 2 3 C2.5775 2.7525 3.155 2.505 3.75 2.25 C4.86375 2.12625 4.86375 2.12625 6 2 C8.25 3.9375 8.25 3.9375 10 6 C6.37 6 2.74 6 -1 6 C-1.33 4.68 -1.66 3.36 -2 2 C-1.34 1.34 -0.68 0.68 0 0 Z " fill="#F2F7FB" transform="translate(121,37)"/>
<path d="M0 0 C1.79398884 0.25499841 3.58520875 0.52953814 5.375 0.8125 C6.87160156 1.03873047 6.87160156 1.03873047 8.3984375 1.26953125 C11 2 11 2 13 5 C9.37 5 5.74 5 2 5 C1.34 3.35 0.68 1.7 0 0 Z " fill="#E9F0EF" transform="translate(85,136)"/>
<path d="M0 0 C0.99 0.33 1.98 0.66 3 1 C3.33 3.64 3.66 6.28 4 9 C1.525 8.01 1.525 8.01 -1 7 C-1.04254356 5.00045254 -1.04080783 2.99958364 -1 1 C-0.67 0.67 -0.34 0.34 0 0 Z " fill="#D3DBEB" transform="translate(119,113)"/>
<path d="M0 0 C1.32 0 2.64 0 4 0 C5.23076923 5.41538462 5.23076923 5.41538462 4.0625 8.375 C3.711875 8.91125 3.36125 9.4475 3 10 C-0.00617269 6.99382731 0.40414684 4.17618402 0 0 Z " fill="#D4D9E8" transform="translate(103,92)"/>
<path d="M0 0 C1.32 0 2.64 0 4 0 C3.125 4.75 3.125 4.75 2 7 C0.35 7 -1.3 7 -3 7 C-1.125 2.25 -1.125 2.25 0 0 Z " fill="#151C4A" transform="translate(133,126)"/>
<path d="M0 0 C0.33 1.32 0.66 2.64 1 4 C2.65 4 4.3 4 6 4 C6 4.99 6 5.98 6 7 C6.66 7 7.32 7 8 7 C8 7.66 8 8.32 8 9 C6.51800098 8.55090939 5.03944764 8.09043436 3.5625 7.625 C2.73878906 7.36976563 1.91507812 7.11453125 1.06640625 6.8515625 C-1 6 -1 6 -2 4 C-1.0625 1.875 -1.0625 1.875 0 0 Z " fill="#D8E2EE" transform="translate(93,124)"/>
<path d="M0 0 C0 0.33 0 0.66 0 1 C-2.31 1 -4.62 1 -7 1 C-7.33 3.97 -7.66 6.94 -8 10 C-8.99 9.67 -9.98 9.34 -11 9 C-11.35555556 3.66666667 -11.35555556 3.66666667 -10 1.125 C-6.74686316 -0.70488947 -3.68609891 -0.18128355 0 0 Z " fill="#D5DCE8" transform="translate(111,48)"/>
<path d="M0 0 C0 3.51716303 -0.82445585 4.37121748 -3 7 C-3.33 6.01 -3.66 5.02 -4 4 C-7.63 4 -11.26 4 -15 4 C-15 3.67 -15 3.34 -15 3 C-13.75283203 2.80083984 -13.75283203 2.80083984 -12.48046875 2.59765625 C-11.39378906 2.42105469 -10.30710938 2.24445313 -9.1875 2.0625 C-8.10855469 1.88847656 -7.02960938 1.71445313 -5.91796875 1.53515625 C-2.95066644 1.06128079 -2.95066644 1.06128079 0 0 Z " fill="#181C45" transform="translate(153,133)"/>
<path d="M0 0 C0.33 0.99 0.66 1.98 1 3 C1.66 3 2.32 3 3 3 C3 4.65 3 6.3 3 8 C-1.75 7.25 -1.75 7.25 -4 5 C-2.68 3.35 -1.36 1.7 0 0 Z " fill="#253056" transform="translate(101,115)"/>
<path d="M0 0 C0.33 0.66 0.66 1.32 1 2 C3.52733235 2.65555119 3.52733235 2.65555119 6 3 C5.34 5.31 4.68 7.62 4 10 C2.35 9.67 0.7 9.34 -1 9 C-0.34 8.67 0.32 8.34 1 8 C1 7.01 1 6.02 1 5 C1.66 5 2.32 5 3 5 C3 4.34 3 3.68 3 3 C2.01 3.33 1.02 3.66 0 4 C-0.33 3.34 -0.66 2.68 -1 2 C-0.67 1.34 -0.34 0.68 0 0 Z " fill="#D9DEE5" transform="translate(152,76)"/>
<path d="M0 0 C1.98 0 3.96 0 6 0 C6 0.66 6 1.32 6 2 C5.360625 2.226875 4.72125 2.45375 4.0625 2.6875 C1.72806339 3.85250896 1.72806339 3.85250896 1.25 6.625 C1.1675 7.40875 1.085 8.1925 1 9 C-0.32 8.34 -1.64 7.68 -3 7 C-2.67 5.35 -2.34 3.7 -2 2 C-1.34 2 -0.68 2 0 2 C0 1.34 0 0.68 0 0 Z " fill="#171F50" transform="translate(67,75)"/>
<path d="M0 0 C1.32 0.66 2.64 1.32 4 2 C4 3.65 4 5.3 4 7 C3.01 7 2.02 7 1 7 C1.66 7.66 2.32 8.32 3 9 C1.35 9 -0.3 9 -2 9 C-1.34 6.03 -0.68 3.06 0 0 Z " fill="#E1E7EF" transform="translate(107,35)"/>
<path d="M0 0 C0.33 0 0.66 0 1 0 C1 3.96 1 7.92 1 12 C-2.96 12 -6.92 12 -11 12 C-10.67 11.34 -10.34 10.68 -10 10 C-7.36 10.33 -4.72 10.66 -2 11 C-2 10.34 -2 9.68 -2 9 C-1.34 9 -0.68 9 0 9 C-0.33 8.01 -0.66 7.02 -1 6 C-0.72428861 3.99124558 -0.39764263 1.98821313 0 0 Z " fill="#0E1743" transform="translate(95,162)"/>
<path d="M0 0 C2.62113708 0 4.50935112 0.31292445 7 1 C6.6875 2.875 6.6875 2.875 6 5 C5.01 5.66 4.02 6.32 3 7 C2.01 6.67 1.02 6.34 0 6 C0 4.02 0 2.04 0 0 Z " fill="#E9F0F8" transform="translate(158,117)"/>
<path d="M0 0 C3.10551666 0 4.35261084 0.5393715 7 2 C7 2.66 7 3.32 7 4 C6.01 4 5.02 4 4 4 C3.67 4.66 3.34 5.32 3 6 C2.34 5.34 1.68 4.68 1 4 C0.67 4.66 0.34 5.32 0 6 C-0.66 6 -1.32 6 -2 6 C-1.49396008 3.83125748 -1.00016187 2.00032373 0 0 Z " fill="#F2F7F8" transform="translate(136,117)"/>
<path d="M0 0 C2.0625 1.6875 2.0625 1.6875 4 4 C3.9375 6.625 3.9375 6.625 3 9 C2.01 9.66 1.02 10.32 0 11 C0 7.37 0 3.74 0 0 Z " fill="#1A1E3C" transform="translate(116,90)"/>
<path d="M0 0 C2.53524446 1.01409778 3.77139002 1.61497266 5.1875 4 C5.455625 4.66 5.72375 5.32 6 6 C6.33 6.66 6.66 7.32 7 8 C6.34 8 5.68 8 5 8 C5 8.99 5 9.98 5 11 C4.01 10.67 3.02 10.34 2 10 C1.77213542 7.98177083 1.54427083 5.96354167 1.31640625 3.9453125 C1.08707039 1.92595684 1.08707039 1.92595684 0 0 Z " fill="#10184D" transform="translate(168,69)"/>
<path d="M0 0 C1.32 0.99 2.64 1.98 4 3 C3.34 3.66 2.68 4.32 2 5 C2.66 5.66 3.32 6.32 4 7 C4 7.66 4 8.32 4 9 C3.01 9.33 2.02 9.66 1 10 C-0.5 8.6875 -0.5 8.6875 -2 7 C-2 4 -2 4 0 2 C0 1.34 0 0.68 0 0 Z " fill="#D3D8E8" transform="translate(149,50)"/>
<path d="M0 0 C0.66 0 1.32 0 2 0 C2.99 2.64 3.98 5.28 5 8 C4.34 8 3.68 8 3 8 C3 7.34 3 6.68 3 6 C1.68 6 0.36 6 -1 6 C-1 6.66 -1 7.32 -1 8 C-1.66 7.67 -2.32 7.34 -3 7 C-2.01 4.69 -1.02 2.38 0 0 Z " fill="#B0B9D9" transform="translate(136,201)"/>
<path d="M0 0 C3.3 0 6.6 0 10 0 C9.01 0.66 8.02 1.32 7 2 C6.67 2.33 6.34 2.66 6 3 C4.33333333 4.66666667 2.66666667 6.33333333 1 8 C1 7.01 1 6.02 1 5 C1.66 4.67 2.32 4.34 3 4 C2.01 2.68 1.02 1.36 0 0 Z " fill="#0B1448" transform="translate(152,193)"/>
<path d="M0 0 C2.91517292 1.07401108 4.77810176 1.77810176 7 4 C6 5 6 5 3.125 5.25 C0 5 0 5 -1.875 3.5 C-2.24625 3.005 -2.6175 2.51 -3 2 C-2.01 2 -1.02 2 0 2 C0 1.34 0 0.68 0 0 Z " fill="#161C49" transform="translate(89,128)"/>
<path d="M0 0 C1.5625 1.0625 1.5625 1.0625 3 3 C2.6875 6.6875 2.6875 6.6875 2 10 C1.01 10 0.02 10 -1 10 C-2.27351308 7.45297384 -1.80191925 6.5717055 -1.0625 3.875 C-0.86785156 3.15054688 -0.67320312 2.42609375 -0.47265625 1.6796875 C-0.31667969 1.12539062 -0.16070312 0.57109375 0 0 Z " fill="#D6DCEA" transform="translate(147,96)"/>
<path d="M0 0 C2.6875 1.4375 2.6875 1.4375 5 3 C3.68 3.33 2.36 3.66 1 4 C1 5.32 1 6.64 1 8 C0.01 8 -0.98 8 -2 8 C-1.67 6.02 -1.34 4.04 -1 2 C-1.66 1.67 -2.32 1.34 -3 1 C-2.01 0.67 -1.02 0.34 0 0 Z " fill="#111845" transform="translate(148,58)"/>
<path d="M0 0 C3.63 0 7.26 0 11 0 C9.35 1.65 7.7 3.3 6 5 C4 4 2 3 0 2 C0 1.34 0 0.68 0 0 Z " fill="#262C56" transform="translate(82,50)"/>
<path d="M0 0 C0.33 1.32 0.66 2.64 1 4 C0.01 4 -0.98 4 -2 4 C-2.33 4.66 -2.66 5.32 -3 6 C-2.67 6.33 -2.34 6.66 -2 7 C-2.99 7.33 -3.98 7.66 -5 8 C-5.99 7.01 -6.98 6.02 -8 5 C-4.04 2.525 -4.04 2.525 0 0 Z " fill="#E0E5F3" transform="translate(94,30)"/>
<path d="M0 0 C0.33 0.99 0.66 1.98 1 3 C0.01 3.66 -0.98 4.32 -2 5 C-2 4.34 -2 3.68 -2 3 C-3.32 3.33 -4.64 3.66 -6 4 C-5.67 4.99 -5.34 5.98 -5 7 C-5.99 6.67 -6.98 6.34 -8 6 C-8.33 5.01 -8.66 4.02 -9 3 C-5.81237635 0.87491756 -3.73487777 0.4979837 0 0 Z " fill="#0D1949" transform="translate(65,209)"/>
<path d="M0 0 C0.66 0.99 1.32 1.98 2 3 C0.35 3.33 -1.3 3.66 -3 4 C-2.67 4.99 -2.34 5.98 -2 7 C-3.32 6.67 -4.64 6.34 -6 6 C-5.8125 4.125 -5.8125 4.125 -5 2 C-2.4375 0.75 -2.4375 0.75 0 0 Z " fill="#0A143D" transform="translate(156,201)"/>
<path d="M0 0 C0.66 0.33 1.32 0.66 2 1 C-2.625 6.875 -2.625 6.875 -6 8 C-8.26171875 7.87890625 -8.26171875 7.87890625 -10.6875 7.5625 C-11.89986328 7.40974609 -11.89986328 7.40974609 -13.13671875 7.25390625 C-13.75160156 7.17011719 -14.36648437 7.08632812 -15 7 C-15 6.67 -15 6.34 -15 6 C-14.33613281 5.98582031 -13.67226562 5.97164062 -12.98828125 5.95703125 C-6.82744805 5.72950819 -6.82744805 5.72950819 -1.875 2.4375 C-0.946875 1.2309375 -0.946875 1.2309375 0 0 Z " fill="#9FA7C3" transform="translate(171,184)"/>
<path d="M0 0 C0.33 0.99 0.66 1.98 1 3 C0 4 0 4 -1.76586914 4.11352539 C-2.51473389 4.10828857 -3.26359863 4.10305176 -4.03515625 4.09765625 C-4.84404297 4.09443359 -5.65292969 4.09121094 -6.48632812 4.08789062 C-7.33646484 4.07951172 -8.18660156 4.07113281 -9.0625 4.0625 C-9.91650391 4.05798828 -10.77050781 4.05347656 -11.65039062 4.04882812 C-13.76695663 4.03700373 -15.88348685 4.01906769 -18 4 C-18 3.67 -18 3.34 -18 3 C-17.11957031 2.95101562 -16.23914063 2.90203125 -15.33203125 2.8515625 C-14.17058594 2.77679688 -13.00914063 2.70203125 -11.8125 2.625 C-10.08966797 2.52058594 -10.08966797 2.52058594 -8.33203125 2.4140625 C-5.20040883 2.02490426 -2.84714191 1.3190149 0 0 Z " fill="#50517E" transform="translate(96,131)"/>
<path d="M0 0 C1.65 0 3.3 0 5 0 C5 2.31 5 4.62 5 7 C3.02 6.01 1.04 5.02 -1 4 C-0.67 2.68 -0.34 1.36 0 0 Z " fill="#E8EFF6" transform="translate(167,85)"/>
<path d="M0 0 C2 2 2 2 2.125 4.625 C2.08375 5.40875 2.0425 6.1925 2 7 C1.67 6.01 1.34 5.02 1 4 C-2.22404978 5.66954819 -2.22404978 5.66954819 -2.6875 8.625 C-2.790625 9.40875 -2.89375 10.1925 -3 11 C-3.33 11 -3.66 11 -4 11 C-4.33 8.69 -4.66 6.38 -5 4 C-3.35 3.34 -1.7 2.68 0 2 C0 1.34 0 0.68 0 0 Z " fill="#E2E8F0" transform="translate(152,68)"/>
<path d="M0 0 C0 1.65 0 3.3 0 5 C-2.64 4.67 -5.28 4.34 -8 4 C-8.33 3.01 -8.66 2.02 -9 1 C-2.25 0 -2.25 0 0 0 Z " fill="#222856" transform="translate(112,43)"/>
<path d="M0 0 C2.97 0 5.94 0 9 0 C9 0.66 9 1.32 9 2 C4.61538462 5 4.61538462 5 2 5 C2 4.01 2 3.02 2 2 C1.34 1.34 0.68 0.68 0 0 Z " fill="#CFD5EC" transform="translate(140,137)"/>
<path d="M0 0 C1.875 1.3125 1.875 1.3125 2.625 3.4375 C2.7075 4.05625 2.79 4.675 2.875 5.3125 C-0.5625 4.5 -0.5625 4.5 -4.125 3.3125 C-4.455 2.3225 -4.785 1.3325 -5.125 0.3125 C-2.125 -0.6875 -2.125 -0.6875 0 0 Z " fill="#DEE5EE" transform="translate(73.125,128.6875)"/>
<path d="M0 0 C0 1.66666667 0 3.33333333 0 5 C-4.455 5.495 -4.455 5.495 -9 6 C-8.67 4.35 -8.34 2.7 -8 1 C-6.576875 1.309375 -6.576875 1.309375 -5.125 1.625 C-4.09375 1.74875 -3.0625 1.8725 -2 2 C-1.34 1.34 -0.68 0.68 0 0 Z " fill="#E8EFF2" transform="translate(116,84)"/>
<path d="M0 0 C2.475 0.99 2.475 0.99 5 2 C5 2.66 5 3.32 5 4 C5.66 4.33 6.32 4.66 7 5 C5.35 5.33 3.7 5.66 2 6 C1.01 4.35 0.02 2.7 -1 1 C-0.67 0.67 -0.34 0.34 0 0 Z " fill="#202155" transform="translate(105,56)"/>
<path d="M0 0 C1.32 0.66 2.64 1.32 4 2 C2.38405168 4.04119788 0.7143618 6.04072937 -1 8 C-1.66 8 -2.32 8 -3 8 C-2.45276317 4.62537285 -1.9451 2.91765 0 0 Z " fill="#10163E" transform="translate(123,25)"/>
<path d="M0 0 C0 0.33 0 0.66 0 1 C-1.98 1.33 -3.96 1.66 -6 2 C-5.34 2.66 -4.68 3.32 -4 4 C-4.99 4.495 -4.99 4.495 -6 5 C-8 3.625 -8 3.625 -10 2 C-10 1.34 -10 0.68 -10 0 C-6.30458414 -0.95024979 -3.69541586 -0.95024979 0 0 Z M-7 5 C-6.67 5.66 -6.34 6.32 -6 7 C-6.66 6.67 -7.32 6.34 -8 6 C-7.67 5.67 -7.34 5.34 -7 5 Z " fill="#232A55" transform="translate(82,135)"/>
<path d="M0 0 C2 3.875 2 3.875 2 5 C0.576875 5.4640625 0.576875 5.4640625 -0.875 5.9375 C-3.86080408 6.87394742 -3.86080408 6.87394742 -6 8 C-4.52307692 2.33846154 -4.52307692 2.33846154 -1.875 0.625 C-0.946875 0.315625 -0.946875 0.315625 0 0 Z " fill="#21265E" transform="translate(173,107)"/>
<path d="M0 0 C3 1 3 1 5 3 C5.99 2.34 6.98 1.68 8 1 C8.33 1.66 8.66 2.32 9 3 C6.94766315 5.2477975 5.99332739 6.0022242 3 7 C2.01 4.69 1.02 2.38 0 0 Z " fill="#1A2046" transform="translate(164,93)"/>
<path d="M0 0 C0.33 0.66 0.66 1.32 1 2 C1.66 2 2.32 2 3 2 C3 2.99 3 3.98 3 5 C2.01 5.33 1.02 5.66 0 6 C-0.73323796 8.01508358 -0.73323796 8.01508358 -1 10 C-2.1875 8.375 -2.1875 8.375 -3 6 C-1.625 2.75 -1.625 2.75 0 0 Z " fill="#212658" transform="translate(139,178)"/>
<path d="M0 0 C2.31 0 4.62 0 7 0 C5.84826645 2.46800047 4.95216435 4.04783565 3 6 C3 5.34 3 4.68 3 4 C2.34 3.67 1.68 3.34 1 3 C0.67 2.01 0.34 1.02 0 0 Z " fill="#0D1645" transform="translate(156,162)"/>
<path d="M0 0 C1.32 0.66 2.64 1.32 4 2 C4 2.99 4 3.98 4 5 C1.69 4.67 -0.62 4.34 -3 4 C-2.34 3.67 -1.68 3.34 -1 3 C-0.67 2.01 -0.34 1.02 0 0 Z " fill="#1B2055" transform="translate(104,130)"/>
<path d="M0 0 C1.11375 0.2475 1.11375 0.2475 2.25 0.5 C5.19006578 1.11925696 5.19006578 1.11925696 9 1 C6.60490662 3.89932357 4.68754757 4.50168276 1 5 C0.67 3.35 0.34 1.7 0 0 Z " fill="#222655" transform="translate(124,117)"/>
<path d="M0 0 C2.31 0.33 4.62 0.66 7 1 C6.34 2.65 5.68 4.3 5 6 C4.01 5.01 3.02 4.02 2 3 C1.01 3.495 1.01 3.495 0 4 C0 2.68 0 1.36 0 0 Z " fill="#EEF4FA" transform="translate(112,102)"/>
<path d="M0 0 C0.33 0 0.66 0 1 0 C1 3.3 1 6.6 1 10 C0.01 9.34 -0.98 8.68 -2 8 C-2.3125 5 -2.3125 5 -2 2 C-1.34 1.34 -0.68 0.68 0 0 Z " fill="#0F1339" transform="translate(110,90)"/>
<path d="M0 0 C2.475 0.495 2.475 0.495 5 1 C5.33 2.65 5.66 4.3 6 6 C4.02 6 2.04 6 0 6 C0 4.02 0 2.04 0 0 Z " fill="#2B3367" transform="translate(61,83)"/>
<path d="M0 0 C2.38672669 2.96283313 4.7353371 5.94270509 7 9 C6.01 9.495 6.01 9.495 5 10 C1.32769295 6.92000054 0.43197635 4.7517398 0 0 Z " fill="#DCE1F1" transform="translate(81,106)"/>
<path d="M0 0 C0.33 0.66 0.66 1.32 1 2 C3.01669827 3.13350534 3.01669827 3.13350534 5 4 C4.01 4.495 4.01 4.495 3 5 C2.67 5.66 2.34 6.32 2 7 C2 6.34 2 5.68 2 5 C1.01 4.67 0.02 4.34 -1 4 C-0.67 2.68 -0.34 1.36 0 0 Z M6 0 C6.33 0.99 6.66 1.98 7 3 C6.01 3 5.02 3 4 3 C5 1 5 1 6 0 Z " fill="#DDE1EC" transform="translate(73,101)"/>
<path d="M0 0 C1.98 0.66 3.96 1.32 6 2 C5.02391783 4.92824652 3.89213369 6.61426621 2 9 C1.34 6.03 0.68 3.06 0 0 Z " fill="#D8DFEA" transform="translate(145,79)"/>
<path d="M0 0 C0.6875 1.75 0.6875 1.75 1 4 C-0.4375 6.25 -0.4375 6.25 -2 8 C-2.99 7.67 -3.98 7.34 -5 7 C-3.47793991 4.37098712 -2.15634036 2.15634036 0 0 Z " fill="#111941" transform="translate(87,69)"/>
<path d="M0 0 C0.99 0.99 1.98 1.98 3 3 C2.34 3 1.68 3 1 3 C0.67 4.32 0.34 5.64 0 7 C-1.32 7 -2.64 7 -4 7 C-3.07174217 4.2152265 -2.10863871 2.10863871 0 0 Z " fill="#21275B" transform="translate(158,68)"/>
<path d="M0 0 C1.65 0.33 3.3 0.66 5 1 C4.01 1.495 4.01 1.495 3 2 C2.34444881 4.52733235 2.34444881 4.52733235 2 7 C0.4375 5.75 0.4375 5.75 -1 4 C-0.6875 1.8125 -0.6875 1.8125 0 0 Z " fill="#222751" transform="translate(120,67)"/>
<path d="M0 0 C5.52 -0.368 5.52 -0.368 7.875 1.4375 C9 3 9 3 9 4 C7.35 4 5.7 4 4 4 C4 3.34 4 2.68 4 2 C2.35 2 0.7 2 -1 2 C-0.67 1.34 -0.34 0.68 0 0 Z " fill="#F0F4FC" transform="translate(116,49)"/>
<path d="M0 0 C1.98 0.495 1.98 0.495 4 1 C4.33 2.32 4.66 3.64 5 5 C3.35 5.33 1.7 5.66 0 6 C-1 3 -1 3 0 0 Z " fill="#10154D" transform="translate(94,202)"/>
<path d="M0 0 C0.66 0.33 1.32 0.66 2 1 C1.01 2.98 0.02 4.96 -1 7 C-1.99 7 -2.98 7 -4 7 C-4 5.02 -4 3.04 -4 1 C-3.01 1.33 -2.02 1.66 -1 2 C-0.67 1.34 -0.34 0.68 0 0 Z " fill="#20234F" transform="translate(171,201)"/>
<path d="M0 0 C0.33 0 0.66 0 1 0 C1 2.97 1 5.94 1 9 C1.66 9 2.32 9 3 9 C3.33 8.34 3.66 7.68 4 7 C4 7.99 4 8.98 4 10 C3.34 10 2.68 10 2 10 C1.67 10.99 1.34 11.98 1 13 C-1.48887372 8.31506124 -0.85687773 5.0555786 0 0 Z " fill="#273161" transform="translate(131,172)"/>
<path d="M0 0 C0.33 0 0.66 0 1 0 C1 2.97 1 5.94 1 9 C-0.32 9 -1.64 9 -3 9 C-3 7.68 -3 6.36 -3 5 C-2.34 4.67 -1.68 4.34 -1 4 C-0.34786708 1.97536745 -0.34786708 1.97536745 0 0 Z " fill="#0B133A" transform="translate(110,115)"/>
<path d="M0 0 C0.763125 0.350625 1.52625 0.70125 2.3125 1.0625 C5.04759379 2.32360884 5.04759379 2.32360884 8 1 C8.33 2.65 8.66 4.3 9 6 C6.07606119 5.37344168 3.55170871 4.5838192 1 3 C0.67 2.01 0.34 1.02 0 0 Z " fill="#1E255C" transform="translate(118,107)"/>
<path d="M0 0 C0.66 0.66 1.32 1.32 2 2 C1.01 2.495 1.01 2.495 0 3 C0 2.01 0 1.02 0 0 Z M5 -1 C5.33 -0.34 5.66 0.32 6 1 C5.0625 3.625 5.0625 3.625 4 6 C3.01 6 2.02 6 1 6 C1.33 4.02 1.66 2.04 2 0 C2.99 -0.33 3.98 -0.66 5 -1 Z " fill="#E1E9F0" transform="translate(166,103)"/>
<path d="M0 0 C2.97 0.495 2.97 0.495 6 1 C6 1.66 6 2.32 6 3 C3.625 4.0625 3.625 4.0625 1 5 C0.34 4.67 -0.32 4.34 -1 4 C-0.67 2.68 -0.34 1.36 0 0 Z " fill="#F2F7F6" transform="translate(146,67)"/>
<path d="M0 0 C0.33 0 0.66 0 1 0 C1 1.65 1 3.3 1 5 C1.99 5.33 2.98 5.66 4 6 C4 7.32 4 8.64 4 10 C2.68 9.67 1.36 9.34 0 9 C0 6.03 0 3.06 0 0 Z " fill="#2F385C" transform="translate(116,53)"/>
<path d="M0 0 C0 1.32 0 2.64 0 4 C-1.98 4.33 -3.96 4.66 -6 5 C-6.33 3.68 -6.66 2.36 -7 1 C-4.53721199 -0.231394 -2.7204945 -0.07159196 0 0 Z " fill="#1D2350" transform="translate(132,24)"/>
<path d="M0 0 C3 0.0625 3 0.0625 6 1 C7.375 3.5625 7.375 3.5625 8 6 C7.01 5.34 6.02 4.68 5 4 C2.67891331 3.29187186 0.34622853 2.61975848 -2 2 C-1.34 1.34 -0.68 0.68 0 0 Z " fill="#0C1746" transform="translate(112,24)"/>
<path d="M0 0 C0.66 0 1.32 0 2 0 C2 1.98 2 3.96 2 6 C0.35 5.67 -1.3 5.34 -3 5 C-3 4.01 -3 3.02 -3 2 C-2.01 2 -1.02 2 0 2 C0 1.34 0 0.68 0 0 Z " fill="#0E1546" transform="translate(86,202)"/>
<path d="M0 0 C0.66 0.33 1.32 0.66 2 1 C1.67 1.99 1.34 2.98 1 4 C1.99 3.67 2.98 3.34 4 3 C4 3.66 4 4.32 4 5 C3.34 5 2.68 5 2 5 C1.67 5.99 1.34 6.98 1 8 C0.34 7.67 -0.32 7.34 -1 7 C-1.04254356 5.00045254 -1.04080783 2.99958364 -1 1 C-0.67 0.67 -0.34 0.34 0 0 Z " fill="#1A2163" transform="translate(104,162)"/>
<path d="M0 0 C0 0.66 0 1.32 0 2 C0.66 2.33 1.32 2.66 2 3 C1.01 3.33 0.02 3.66 -1 4 C-1.33 4.66 -1.66 5.32 -2 6 C-2.66 5.34 -3.32 4.68 -4 4 C-4.66 3.67 -5.32 3.34 -6 3 C-2.25 0 -2.25 0 0 0 Z " fill="#262A5E" transform="translate(156,162)"/>
<path d="M0 0 C3.875 1.75 3.875 1.75 5 4 C2.69 4.33 0.38 4.66 -2 5 C-2 4.34 -2 3.68 -2 3 C-1.34 3 -0.68 3 0 3 C0 2.01 0 1.02 0 0 Z " fill="#DEE5EE" transform="translate(75,122)"/>
<path d="M0 0 C4 4.75 4 4.75 4 7 C2.68 7.33 1.36 7.66 0 8 C-0.68707555 5.50935112 -1 3.62113708 -1 1 C-0.67 0.67 -0.34 0.34 0 0 Z " fill="#DFE6F3" transform="translate(117,106)"/>
<path d="M0 0 C0.99 0.33 1.98 0.66 3 1 C1.75 3.5 1.75 3.5 0 6 C-1.32 6 -2.64 6 -4 6 C-4 5.34 -4 4.68 -4 4 C-3.01 3.67 -2.02 3.34 -1 3 C-0.67 2.01 -0.34 1.02 0 0 Z " fill="#E3E7F5" transform="translate(93,43)"/>
<path d="M0 0 C1.32 0 2.64 0 4 0 C4 0.66 4 1.32 4 2 C4.99 1.67 5.98 1.34 7 1 C7 1.66 7 2.32 7 3 C4.08517222 3.80967438 2.53886783 4.21845993 -0.3125 3.0625 C-0.869375 2.711875 -1.42625 2.36125 -2 2 C-1.34 2 -0.68 2 0 2 C0 1.34 0 0.68 0 0 Z " fill="#3D4974" transform="translate(135,207)"/>
<path d="M0 0 C0.99 0.33 1.98 0.66 3 1 C3 3.64 3 6.28 3 9 C2.67 8.01 2.34 7.02 2 6 C1.34 6 0.68 6 0 6 C0 4.02 0 2.04 0 0 Z " fill="#E0E2F5" transform="translate(112,115)"/>
<path d="M0 0 C1.32 0.33 2.64 0.66 4 1 C4 1.99 4 2.98 4 4 C2.125 4.625 2.125 4.625 0 5 C-0.66 4.34 -1.32 3.68 -2 3 C-1.34 2.01 -0.68 1.02 0 0 Z " fill="#19214A" transform="translate(154,109)"/>
<path d="M0 0 C1.98 0.66 3.96 1.32 6 2 C3 4 3 4 1 4 C0.34 5.32 -0.32 6.64 -1 8 C-1.125 2.25 -1.125 2.25 0 0 Z " fill="#D0D5EA" transform="translate(57,71)"/>
<path d="M0 0 C0.33 0.66 0.66 1.32 1 2 C1.66 2.33 2.32 2.66 3 3 C3 3.99 3 4.98 3 6 C1.35 5.67 -0.3 5.34 -2 5 C-1.34 3.35 -0.68 1.7 0 0 Z " fill="#EAF2F4" transform="translate(70,55)"/>
<path d="M0 0 C1.98 0.495 1.98 0.495 4 1 C4.33 2.65 4.66 4.3 5 6 C3.68 6 2.36 6 1 6 C0.34 5.34 -0.32 4.68 -1 4 C-0.625 1.875 -0.625 1.875 0 0 Z " fill="#0F1749" transform="translate(143,52)"/>
<path d="M0 0 C0.86625 0.556875 0.86625 0.556875 1.75 1.125 C1.75 1.785 1.75 2.445 1.75 3.125 C-0.56 3.125 -2.87 3.125 -5.25 3.125 C-5.58 2.465 -5.91 1.805 -6.25 1.125 C-2.80384615 -1.09038462 -2.80384615 -1.09038462 0 0 Z " fill="#EBF2FA" transform="translate(155.25,45.875)"/>
<path d="M0 0 C1.0326802 2.78823655 1.04509293 3.8677274 0.0625 6.75 C-0.288125 7.4925 -0.63875 8.235 -1 9 C-3 6 -3 6 -4 3 C-2.68 3 -1.36 3 0 3 C0 2.01 0 1.02 0 0 Z " fill="#0C1747" transform="translate(156,207)"/>
<path d="M0 0 C-0.66 0.66 -1.32 1.32 -2 2 C-2.66 1.67 -3.32 1.34 -4 1 C-4 1.66 -4 2.32 -4 3 C-4.66 3 -5.32 3 -6 3 C-6.33 1.68 -6.66 0.36 -7 -1 C-3.51418144 -2.2020064 -3.32007656 -2.21338437 0 0 Z " fill="#5F6B95" transform="translate(160,206)"/>
<path d="M0 0 C0.66 0 1.32 0 2 0 C2 1.98 2 3.96 2 6 C0.68 5.67 -0.64 5.34 -2 5 C-2.33 3.68 -2.66 2.36 -3 1 C-2.01 1.33 -1.02 1.66 0 2 C0 1.34 0 0.68 0 0 Z " fill="#09133B" transform="translate(103,202)"/>
<path d="M0 0 C0.33 0 0.66 0 1 0 C1 2.31 1 4.62 1 7 C1.99 6.67 2.98 6.34 4 6 C4.33 7.32 4.66 8.64 5 10 C3.68 10 2.36 10 1 10 C-0.60725635 6.78548731 -0.05748185 3.56387464 0 0 Z " fill="#303461" transform="translate(147,172)"/>
<path d="M0 0 C3.63 0 7.26 0 11 0 C11 0.33 11 0.66 11 1 C10.31292969 1.13277344 9.62585938 1.26554688 8.91796875 1.40234375 C7.56638672 1.66724609 7.56638672 1.66724609 6.1875 1.9375 C4.84751953 2.19853516 4.84751953 2.19853516 3.48046875 2.46484375 C0.88602829 2.97741153 0.88602829 2.97741153 -2 4 C-1.34 2.68 -0.68 1.36 0 0 Z " fill="#E9EDFA" transform="translate(153,160)"/>
<path d="M0 0 C3.35595828 0.59927826 5.37801226 1.84622436 8 4 C2.25 4.125 2.25 4.125 0 3 C0 2.01 0 1.02 0 0 Z " fill="#E6EAF7" transform="translate(83,130)"/>
<path d="M0 0 C1.32 0 2.64 0 4 0 C3.67 2.97 3.34 5.94 3 9 C2.67 9 2.34 9 2 9 C2 7.35 2 5.7 2 4 C1.34 4 0.68 4 0 4 C0 2.68 0 1.36 0 0 Z " fill="#C8D3E7" transform="translate(104,115)"/>
<path d="M0 0 C0.33 0.66 0.66 1.32 1 2 C1.99 2.33 2.98 2.66 4 3 C3.34 3 2.68 3 2 3 C2 3.66 2 4.32 2 5 C0.35 4.67 -1.3 4.34 -3 4 C-3 3.01 -3 2.02 -3 1 C-2.01 0.67 -1.02 0.34 0 0 Z " fill="#F3F7F8" transform="translate(161,111)"/>
<path d="M0 0 C0.33 0.99 0.66 1.98 1 3 C1.99 2.67 2.98 2.34 4 2 C4.33 2.66 4.66 3.32 5 4 C3.02 4.99 1.04 5.98 -1 7 C-1.625 4.625 -1.625 4.625 -2 2 C-1.34 1.34 -0.68 0.68 0 0 Z " fill="#D2DAED" transform="translate(122,60)"/>
<path d="M0 0 C2.31 0 4.62 0 7 0 C5.515 2.475 5.515 2.475 4 5 C3.01 4.67 2.02 4.34 1 4 C0.3125 1.9375 0.3125 1.9375 0 0 Z " fill="#24285D" transform="translate(148,61)"/>
<path d="M0 0 C0.99 0.33 1.98 0.66 3 1 C3 2.32 3 3.64 3 5 C1.68 4.67 0.36 4.34 -1 4 C-0.67 3.34 -0.34 2.68 0 2 C-0.66 1.67 -1.32 1.34 -2 1 C-1.34 0.67 -0.68 0.34 0 0 Z " fill="#182062" transform="translate(84,53)"/>
<path d="M0 0 C3.14624993 -0.26218749 4.61837017 -0.24754367 7.3125 1.5 C8.1478125 2.2425 8.1478125 2.2425 9 3 C7.02 3.99 7.02 3.99 5 5 C3.35 3.35 1.7 1.7 0 0 Z " fill="#23275A" transform="translate(151,51)"/>
<path d="M0 0 C1.98 0.99 3.96 1.98 6 3 C5.34 3.66 4.68 4.32 4 5 C4 5.99 4 6.98 4 8 C3.01 7.67 2.02 7.34 1 7 C1 6.34 1 5.68 1 5 C0.68197057 3.33034549 0.35015049 1.66321482 0 0 Z " fill="#1F2957" transform="translate(90,206)"/>
<path d="M0 0 C0.66 0 1.32 0 2 0 C2 0.99 2 1.98 2 3 C2.66 3.33 3.32 3.66 4 4 C3.67 4.66 3.34 5.32 3 6 C2.34 6 1.68 6 1 6 C0.67 6.99 0.34 7.98 0 9 C0 6.03 0 3.06 0 0 Z " fill="#0C1242" transform="translate(125,199)"/>
<path d="M0 0 C2.4375 0.75 2.4375 0.75 5 2 C5.8125 4.125 5.8125 4.125 6 6 C4.125 5.8125 4.125 5.8125 2 5 C0.75 2.4375 0.75 2.4375 0 0 Z " fill="#20244C" transform="translate(81,105)"/>
<path d="M0 0 C0.66 0 1.32 0 2 0 C2.33 1.32 2.66 2.64 3 4 C2.01 4 1.02 4 0 4 C0 5.65 0 7.3 0 9 C-0.33 9 -0.66 9 -1 9 C-1.09765625 2.84765625 -1.09765625 2.84765625 -1 1 C-0.67 0.67 -0.34 0.34 0 0 Z " fill="#AFB4CB" transform="translate(164,96)"/>
<path d="M0 0 C0.99 0.99 1.98 1.98 3 3 C2.34 3 1.68 3 1 3 C1 3.66 1 4.32 1 5 C-1 6.625 -1 6.625 -3 8 C-3.36923077 3.44615385 -3.36923077 3.44615385 -1.5 1.1875 C-1.005 0.795625 -0.51 0.40375 0 0 Z " fill="#222D5A" transform="translate(65,94)"/>
<path d="M0 0 C1.32 0.33 2.64 0.66 4 1 C3.34 2.32 2.68 3.64 2 5 C0.68 4.67 -0.64 4.34 -2 4 C-1.34 2.68 -0.68 1.36 0 0 Z " fill="#1D2758" transform="translate(162,92)"/>
<path d="M0 0 C1.98 0.495 1.98 0.495 4 1 C3.67 2.98 3.34 4.96 3 7 C1.68 6.67 0.36 6.34 -1 6 C-0.01 6 0.98 6 2 6 C1.34 5.01 0.68 4.02 0 3 C0 2.01 0 1.02 0 0 Z " fill="#CACCDF" transform="translate(71,71)"/>
<path d="M0 0 C0.33 0.66 0.66 1.32 1 2 C2.65 2 4.3 2 6 2 C6 3.32 6 4.64 6 6 C4 5 2 4 0 3 C0 2.01 0 1.02 0 0 Z " fill="#0D1740" transform="translate(69,160)"/>
<path d="M0 0 C0.99 0.66 1.98 1.32 3 2 C3 2.99 3 3.98 3 5 C1.35 4.67 -0.3 4.34 -2 4 C-1.34 2.68 -0.68 1.36 0 0 Z " fill="#D8DEF1" transform="translate(120,139)"/>
<path d="M0 0 C1.98 0.495 1.98 0.495 4 1 C3.67 2.32 3.34 3.64 3 5 C1.68 4.34 0.36 3.68 -1 3 C-0.67 2.01 -0.34 1.02 0 0 Z " fill="#E7E9F7" transform="translate(76,110)"/>
<path d="M0 0 C1.61949011 2.57213134 2.04408751 3.67669159 1.625 6.75 C1.41875 7.4925 1.2125 8.235 1 9 C0.34 8.67 -0.32 8.34 -1 8 C-0.67 6.68 -0.34 5.36 0 4 C-0.66 4 -1.32 4 -2 4 C-1.34 2.68 -0.68 1.36 0 0 Z " fill="#F6F8FC" transform="translate(80,106)"/>
<path d="M0 0 C2.97 0 5.94 0 9 0 C8.67 0.66 8.34 1.32 8 2 C6.35 2 4.7 2 3 2 C2.67 2.66 2.34 3.32 2 4 C1.34 3.67 0.68 3.34 0 3 C0 2.01 0 1.02 0 0 Z " fill="#10173C" transform="translate(159,71)"/>
<path d="M0 0 C0.33 1.32 0.66 2.64 1 4 C2.32 3.67 3.64 3.34 5 3 C5.33 4.32 5.66 5.64 6 7 C5.01 7.33 4.02 7.66 3 8 C1.5 6.8125 1.5 6.8125 0 5 C-0.1875 2.3125 -0.1875 2.3125 0 0 Z " fill="#3E436C" transform="translate(60,67)"/>
<path d="M0 0 C2 1 2 1 2.75 2.875 C3 5 3 5 1 8 C0.67 7.01 0.34 6.02 0 5 C-1.49985609 3.33289654 -1.49985609 3.33289654 -3 2 C-2.01 2 -1.02 2 0 2 C0 1.34 0 0.68 0 0 Z " fill="#D4D9E8" transform="translate(108,62)"/>
<path d="M0 0 C1.32 0.99 2.64 1.98 4 3 C2.02 3.66 0.04 4.32 -2 5 C-2.66 4.34 -3.32 3.68 -4 3 C-2.68 2.01 -1.36 1.02 0 0 Z " fill="#D1DBE8" transform="translate(67,59)"/>
<path d="M0 0 C2.79872437 2.52788007 4.45773019 4.20411134 5 8 C4.01 8.495 4.01 8.495 3 9 C3 8.34 3 7.68 3 7 C2.34 6.67 1.68 6.34 1 6 C0 5 0 5 -0.0625 2.4375 C-0.041875 1.633125 -0.02125 0.82875 0 0 Z " fill="#0A1446" transform="translate(117,53)"/>
<path d="M0 0 C0.99 0.33 1.98 0.66 3 1 C3 2.65 3 4.3 3 6 C2.34 6 1.68 6 1 6 C-0.625 4 -0.625 4 -2 2 C-1.34 1.34 -0.68 0.68 0 0 Z " fill="#F1F6FB" transform="translate(74,51)"/>
<path d="M0 0 C0 0.99 0 1.98 0 3 C0.3062434 4.33981486 0.63451555 5.67511887 1 7 C0.01 7.33 -0.98 7.66 -2 8 C-2.66 7.34 -3.32 6.68 -4 6 C-3.34 6 -2.68 6 -2 6 C-2.33 5.01 -2.66 4.02 -3 3 C-2.01 2.01 -1.02 1.02 0 0 Z " fill="#212B5F" transform="translate(71,40)"/>
</svg>
